<?xml version="1.0" encoding="utf-8"?>
<!-- Generator: Adobe Illustrator 24.1.0, SVG Export Plug-In . SVG Version: 6.00 Build 0)  -->
<svg version="1.1" id="Layer_1" xmlns="http://www.w3.org/2000/svg" xmlns:xlink="http://www.w3.org/1999/xlink" x="0px" y="0px"
	 viewBox="0 0 800 800" style="enable-background:new 0 0 800 800;" xml:space="preserve">
<style type="text/css">
	.st0{fill:url(#SVGID_1_);}
	.st1{fill:url(#SVGID_2_);}
	.st2{opacity:0.2;}
	.st3{fill:none;stroke:#FFFFFF;stroke-width:3;stroke-miterlimit:10;}
	.st4{opacity:0.4;}
	.st5{fill:#FAA31F;}
	.st6{fill:#3691C1;}
	.st7{fill:#F36C4A;}
	.st8{fill:#0F5885;}
	.st9{fill:#A31D2F;}
	.st10{fill:#6AA2C9;}
	.st11{fill:none;}
	.st12{fill:url(#SVGID_3_);}
	.st13{fill:#6BA5CD;}
	.st14{fill:#6D99B8;}
	.st15{fill:#76A6C8;}
	.st16{fill:#7FB0D4;}
	.st17{fill:#528EB7;}
	.st18{fill:#4B88B4;}
	.st19{fill:#3673A1;}
	.st20{fill:#266FA0;}
	.st21{fill:#5181AA;}
	.st22{fill:#136D9F;}
	.st23{fill:#3E88B6;}
	.st24{fill:#569DC9;}
	.st25{fill:#4296C6;}
	.st26{fill:#4897C6;}
	.st27{fill:#2C88B9;}
	.st28{fill:#1676A8;}
	.st29{fill:#126C9F;}
	.st30{fill:#11679B;}
	.st31{fill:#2284B5;}
	.st32{fill:#4396C6;}
	.st33{fill:#1976A8;}
	.st34{fill:#0F5F92;}
	.st35{fill:#005485;}
	.st36{fill:#1C699A;}
	.st37{fill:#4286B3;}
	.st38{fill:#497AA5;}
	.st39{fill:#5689B0;}
	.st40{fill:#629BC3;}
	.st41{fill:#67A2CC;}
	.st42{fill:#84B0D5;}
	.st43{fill:#7EAED3;}
	.st44{fill:#6A9CC1;}
	.st45{fill:#7791B0;}
	.st46{fill:#D9E0EE;}
	.st47{fill:#E8E9F2;}
	.st48{fill:#E0E3F0;}
	.st49{fill:#D4DAEB;}
	.st50{fill:#CBD3E7;}
	.st51{fill:#C6D1E5;}
	.st52{fill:#B9CAE2;}
	.st53{fill:#B5C6E0;}
	.st54{fill:#BDCAE3;}
	.st55{fill:#AFC7E0;}
	.st56{fill:#B9CBE1;}
	.st57{fill:#A7BEDD;}
	.st58{fill:#A8C1DD;}
	.st59{fill:#8EB5D8;}
	.st60{fill:#9BBBDA;}
	.st61{fill:#A0BEDB;}
	.st62{fill:#ABC4DE;}
	.st63{fill:#B5CAE1;}
	.st64{fill:#BDCDE4;}
	.st65{fill:#98B9D9;}
	.st66{fill:#9CBCDB;}
	.st67{fill:#A7C2DE;}
	.st68{fill:#79AAD0;}
	.st69{fill:#5099C6;}
	.st70{fill:#4E9BC8;}
	.st71{fill:#6DA6CE;}
	.st72{fill:#75A8D0;}
	.st73{fill:#A2C0DC;}
	.st74{fill:#93BCDB;}
	.st75{fill:#8CB7D9;}
	.st76{fill:#9EBCDC;}
	.st77{fill:#90B4D6;}
	.st78{fill:#A3BEDC;}
	.st79{fill:#9AB9DA;}
	.st80{fill:#91B5D7;}
	.st81{fill:#79AAD1;}
	.st82{fill:#63A1CB;}
	.st83{fill:#5E9FCA;}
	.st84{fill:#89B6D8;}
	.st85{fill:#60A1CC;}
	.st86{fill:#3189BB;}
	.st87{fill:#3B92C3;}
	.st88{fill:#1A79AB;}
	.st89{fill:#2184B6;}
	.st90{fill:#136698;}
	.st91{fill:#297DAC;}
	.st92{fill:#458AB7;}
	.st93{fill:#4D94C1;}
	.st94{fill:#3A8AB9;}
	.st95{fill:#589ECA;}
	.st96{fill:#62A1CC;}
	.st97{fill:#1D7CAE;}
	.st98{fill:#3385B5;}
	.st99{fill:#8FB3D8;}
	.st100{fill:#76A9CF;}
	.st101{fill:#84B0D4;}
	.st102{fill:#347FAE;}
	.st103{fill:#2288BC;}
	.st104{fill:#4A8AB4;}
	.st105{fill:#1B70A2;}
	.st106{fill:#4C98C7;}
	.st107{fill:#2979A9;}
	.st108{fill:#1A72A5;}
	.st109{fill:#1C7BAD;}
	.st110{fill:#2083B6;}
	.st111{fill:#5496C1;}
	.st112{fill:#68A3CC;}
	.st113{fill:#5091BD;}
	.st114{fill:#5C8FB5;}
	.st115{fill:#4480AA;}
	.st116{fill:#286E9E;}
	.st117{fill:#1873A4;}
	.st118{fill:#14699D;}
	.st119{fill:#277FB0;}
	.st120{fill:#4395C4;}
	.st121{fill:#2F8FC0;}
	.st122{fill:#347DAA;}
	.st123{fill:#4482AE;}
	.st124{fill:#6F86A7;}
	.st125{fill:#577EA6;}
	.st126{fill:#5795BF;}
	.st127{fill:#73A5C8;}
	.st128{fill:#6793B5;}
	.st129{fill:#5580A8;}
	.st130{fill:#2E83B4;}
	.st131{fill:#4D90BD;}
	.st132{fill:#548AB4;}
	.st133{fill:#7AABD0;}
	.st134{fill:#88B9D8;}
	.st135{fill:#6894B6;}
	.st136{fill:#6183A9;}
	.st137{fill:#3980AD;}
	.st138{fill:#236A9B;}
	.st139{fill:#136598;}
	.st140{fill:#074C7D;}
	.st141{fill:#176496;}
	.st142{fill:#588FB8;}
	.st143{fill:#80B2D6;}
	.st144{fill:#4891BE;}
	.st145{fill:#388BBB;}
	.st146{fill:#055687;}
	.st147{fill:#5C7EA5;}
	.st148{fill:#6F9FC1;}
	.st149{fill:#6D9DC2;}
	.st150{fill:#6C8BAD;}
	.st151{fill:#2774A4;}
	.st152{fill:#94BBDA;}
	.st153{fill:#5597C2;}
	.st154{fill:#6C9FC4;}
	.st155{fill:#75A5C3;}
	.st156{fill:#76AAD0;}
	.st157{fill:#8BB9D8;}
	.st158{fill:#82B7D9;}
	.st159{fill:#5C94BB;}
	.st160{fill:#4B84AF;}
	.st161{fill:#4275A1;}
	.st162{fill:#629CC4;}
	.st163{fill:#497DA8;}
	.st164{fill:#2077A9;}
	.st165{fill:none;stroke:#231F20;stroke-linecap:round;stroke-linejoin:round;stroke-miterlimit:10;}
	.st166{fill:#055B8F;}
	.st167{fill:#174172;}
	.st168{fill:#174374;}
	.st169{fill:#044D7E;}
	.st170{fill:#03578A;}
	.st171{fill:#0B598C;}
	.st172{fill:#105E90;}
	.st173{fill:#1E6294;}
	.st174{fill:#166597;}
	.st175{fill:#43739F;}
	.st176{fill:#2F6D9A;}
	.st177{fill:#2174A4;}
	.st178{fill:#337CA9;}
	.st179{fill:#2A83B4;}
	.st180{fill:#5C90B8;}
	.st181{fill:#486B96;}
	.st182{fill:#6280A3;}
	.st183{fill:#608CB2;}
	.st184{fill:#658EB0;}
	.st185{fill:#6D9EBF;}
	.st186{fill:#738FAF;}
	.st187{fill:#7FABC8;}
	.st188{fill:#7C98B4;}
	.st189{fill:#779EBB;}
	.st190{fill:#7CA4C0;}
	.st191{fill:#183E6C;}
	.st192{fill:#1A3E6E;}
	.st193{fill:#1B3663;}
	.st194{fill:#1A3B69;}
	.st195{fill:#015182;}
	.st196{fill:#164373;}
	.st197{fill:#1C3361;}
	.st198{fill:#146093;}
	.st199{fill:#09578B;}
	.st200{fill:#206293;}
	.st201{fill:#004F81;}
	.st202{fill:#165D8F;}
	.st203{fill:#035385;}
	.st204{fill:#34719F;}
	.st205{fill:#306C99;}
	.st206{fill:#3E6F9C;}
	.st207{fill:#59789F;}
	.st208{fill:#6884A9;}
	.st209{fill:#7689A9;}
	.st210{fill:#6980A3;}
	.st211{fill:#6E85A8;}
	.st212{fill:#5B86AD;}
	.st213{fill:#6C8FB0;}
	.st214{fill:#6D9BBB;}
	.st215{fill:#7DAECE;}
	.st216{fill:#7A9DB9;}
	.st217{fill:#77A2BF;}
	.st218{fill:#7BA8C6;}
	.st219{fill:#81AAC6;}
	.st220{fill:#83B2D0;}
	.st221{fill:#8EBDDA;}
	.st222{fill:#89B9D6;}
	.st223{fill:#95C0DC;}
	.st224{fill:#9CC2DD;}
	.st225{fill:#6BA6CF;}
	.st226{fill:#9FC1DD;}
	.st227{fill:#92BFDB;}
	.st228{fill:#A5C6E0;}
	.st229{fill:#B6CDE4;}
	.st230{fill:#BCCFE5;}
	.st231{fill:#CED8EA;}
	.st232{fill:#D6DCEC;}
	.st233{fill:#D2D8EA;}
	.st234{fill:#F2F0F7;}
	.st235{fill:#F2EFF7;}
	.st236{fill:#E8E9F3;}
	.st237{fill:#DEE2F1;}
	.st238{fill:#D1D9EA;}
	.st239{fill:#D0D8EB;}
	.st240{fill:#C8D5E9;}
	.st241{fill:#BFD1E6;}
	.st242{fill:#AEC9E1;}
	.st243{fill:#A6C7E0;}
	.st244{fill:#AFCCE3;}
	.st245{fill:#3690C1;}
	.st246{fill:#4999C7;}
	.st247{fill:#136DA0;}
	.st248{fill:#396E9B;}
	.st249{fill:#6699BE;}
	.st250{fill:none;stroke:url(#SVGID_4_);stroke-width:16;stroke-linecap:round;stroke-miterlimit:10;}
	.st251{fill:none;stroke:url(#SVGID_5_);stroke-width:16;stroke-linecap:round;stroke-miterlimit:10;}
	.st252{fill:none;stroke:url(#SVGID_6_);stroke-width:16;stroke-linecap:round;stroke-miterlimit:10;}
	.st253{fill:none;stroke:url(#SVGID_7_);stroke-width:5;stroke-linecap:round;stroke-miterlimit:10;}
	.st254{fill:url(#SVGID_8_);}
	.st255{fill:url(#SVGID_9_);}
	.st256{fill:url(#SVGID_10_);}
	.st257{fill:url(#SVGID_11_);}
	.st258{fill:url(#SVGID_12_);}
	.st259{fill:url(#SVGID_13_);}
	.st260{fill:url(#SVGID_14_);}
	.st261{fill:url(#SVGID_15_);}
	.st262{fill:url(#SVGID_16_);}
	.st263{fill:url(#SVGID_17_);}
	.st264{fill:url(#SVGID_18_);}
	.st265{fill:url(#SVGID_19_);}
	.st266{fill:url(#SVGID_20_);}
	.st267{fill:url(#SVGID_21_);}
	.st268{fill:url(#SVGID_22_);}
	.st269{fill:url(#SVGID_23_);}
	.st270{fill:none;stroke:url(#SVGID_24_);stroke-width:8;stroke-linecap:round;stroke-miterlimit:10;}
	.st271{fill:none;stroke:url(#SVGID_25_);stroke-width:8;stroke-linecap:round;stroke-miterlimit:10;}
	.st272{fill:none;stroke:url(#SVGID_26_);stroke-width:8;stroke-linecap:round;stroke-miterlimit:10;}
	.st273{fill:none;stroke:url(#SVGID_27_);stroke-width:5;stroke-linecap:round;stroke-miterlimit:10;}
	.st274{fill:none;stroke:url(#SVGID_28_);stroke-width:5;stroke-linecap:round;stroke-miterlimit:10;}
	.st275{fill:none;stroke:#104268;stroke-miterlimit:10;}
	.st276{fill:none;stroke:url(#SVGID_29_);stroke-width:5;stroke-linecap:round;stroke-miterlimit:10;}
</style>
<linearGradient id="SVGID_1_" gradientUnits="userSpaceOnUse" x1="-2338.5" y1="895.2482" x2="-2338.5" y2="-106.0118" gradientTransform="matrix(1 0 0 -1 0 783.6)">
	<stop  offset="0" style="stop-color:#6AA2C9"/>
	<stop  offset="1" style="stop-color:#105885"/>
</linearGradient>
<rect x="-2838.5" y="-109.6" class="st0" width="1000" height="1000"/>
<linearGradient id="SVGID_2_" gradientUnits="userSpaceOnUse" x1="-1138.5" y1="895.2482" x2="-1138.5" y2="-106.0118" gradientTransform="matrix(1 0 0 -1 0 783.6)">
	<stop  offset="0" style="stop-color:#6AA2C9"/>
	<stop  offset="1" style="stop-color:#105885"/>
</linearGradient>
<rect x="-1638.5" y="-109.6" class="st1" width="1000" height="1000"/>
<g class="st2">
	<polygon class="st3" points="-1149,420.8 -1232.3,355.6 -1190.7,434.8 	"/>
	<polygon class="st3" points="-1183.3,448.9 -1141.6,528.2 -1141.6,434.9 	"/>
	<polygon class="st3" points="-1247.5,360.6 -1247.5,453.9 -1205.8,439.9 	"/>
	<polygon class="st3" points="-1240,468 -1156.8,533.2 -1198.4,454 	"/>
</g>
<g>
	<polygon class="st3" points="-1130.6,415.5 -1042.7,346.5 -1130.6,346.5 	"/>
	<polygon class="st3" points="-1130.6,261.9 -1130.6,330.8 -1042.7,330.8 	"/>
	<polygon class="st3" points="-1146.3,330.8 -1146.3,261.9 -1234.2,330.8 	"/>
	<polygon class="st3" points="-1146.3,415.5 -1146.3,346.5 -1234.2,346.5 	"/>
</g>
<g class="st4">
	<polygon class="st3" points="-1120.3,533.2 -1037,468 -1078.7,454 	"/>
	<polygon class="st3" points="-1135.4,434.9 -1135.4,528.2 -1093.8,448.9 	"/>
	<polygon class="st3" points="-1044.7,355.6 -1128,420.8 -1086.4,434.8 	"/>
	<polygon class="st3" points="-1071.2,439.9 -1029.6,453.9 -1029.6,360.6 	"/>
</g>
<path class="st5" d="M-4265.9,188.2L-4265.9,188.2L-4265.9,188.2z"/>
<g>
	<polygon class="st6" points="-3828.1,471.5 -4134,231.8 -3981,522.9 	"/>
	<polygon class="st6" points="-3953.8,574.7 -3800.8,865.8 -3800.8,523.4 	"/>
	<polygon class="st6" points="-4189.5,250.4 -4189.5,592.9 -4036.5,541.5 	"/>
	<polygon class="st6" points="-4162.2,644.8 -3856.4,884.4 -4009.3,593.3 	"/>
</g>
<path class="st7" d="M-3800.1,492.8L-3800.1,492.8L-3800.1,492.8z"/>
<g>
	<polygon class="st8" points="-3744.6,884.4 -3438.7,644.8 -3591.7,593.3 	"/>
	<polygon class="st8" points="-3800.1,523.4 -3800.1,865.8 -3647.2,574.7 	"/>
	<polygon class="st8" points="-3467,231.8 -3772.9,471.5 -3619.9,522.9 	"/>
	<polygon class="st8" points="-3564.4,541.5 -3411.5,592.9 -3411.5,250.4 	"/>
</g>
<path class="st9" d="M-3800.1-116.3L-3800.1-116.3L-3800.1-116.3z"/>
<g>
	<polygon class="st10" points="-3771.2,470.2 -3448.4,217.1 -3771.2,217.1 	"/>
	<polygon class="st10" points="-3771.2,-93.6 -3771.2,159.3 -3448.4,159.3 	"/>
	<polygon class="st10" points="-3829,159.3 -3829,-93.6 -4151.9,159.3 	"/>
	<polygon class="st10" points="-3829,470.2 -3829,217.1 -4151.9,217.1 	"/>
</g>
<g>
	<g>
		<path class="st11" d="M-5818.6-202.8c-148.3,0-268.4,120.2-268.4,268.4c0,62.4,21.3,119.8,57,165.3c3.5-30.6,22.8-110,126.4-128.7
			c1.8,26.9,85,48.5,85,48.5s83.2-21.5,85-48.5c103.6,18.7,122.8,98,126.4,128.7c35.7-45.6,57-103,57-165.3
			C-5550.3-82.6-5670.4-202.8-5818.6-202.8z M-5818.6,116.1c-57.7,0-106.8-67.8-106.8-167.4s106.8-101,106.8-101
			s106.8,1.4,106.8,101S-5761,116.1-5818.6,116.1z"/>
		<g>
			
				<linearGradient id="SVGID_3_" gradientUnits="userSpaceOnUse" x1="-6548.8501" y1="336.0974" x2="-5240.0498" y2="1644.8973" gradientTransform="matrix(1 0 0 1 0 -870.8474)">
				<stop  offset="0" style="stop-color:#D9E0EE"/>
				<stop  offset="0.1878" style="stop-color:#BDCAE3"/>
				<stop  offset="0.4933" style="stop-color:#84B0D5"/>
				<stop  offset="0.6969" style="stop-color:#1676A8"/>
				<stop  offset="1" style="stop-color:#174172"/>
			</linearGradient>
			<rect x="-6732.1" y="-351.5" class="st12" width="1675.3" height="942.3"/>
			<polygon class="st13" points="-6361,142.9 -6361,245.9 -6233.8,256.2 			"/>
			<polygon class="st14" points="-6674.8,398.9 -6694.6,473.6 -6557.3,494.2 -6564.6,390.3 			"/>
			<polygon class="st15" points="-6491.7,267.4 -6564.6,390.3 -6601.5,228.3 			"/>
			<polygon class="st16" points="-6601.5,228.3 -6539.1,176.5 -6444.3,128.7 -6491.7,267.4 			"/>
			<polygon class="st17" points="-6205.5,342.2 -6233.8,453 -6340.4,360.2 			"/>
			<polygon class="st18" points="-6233.8,453 -6205.5,342.2 -6123.6,381.7 			"/>
			<polygon class="st19" points="-5983.2,466.2 -5988.1,390.3 -5909.9,477 			"/>
			<polygon class="st20" points="-5909.9,477 -5894.4,590.8 -5983.2,466.2 			"/>
			<polygon class="st21" points="-6233.8,453 -6251,568.1 -6355,459.9 			"/>
			<polygon class="st22" points="-5680.8,403.2 -5660.7,466.7 -5816,516.6 			"/>
			<polygon class="st23" points="-6029.3,267.4 -5988.1,390.3 -6123.6,381.7 			"/>
			<polygon class="st24" points="-6123.6,166 -6114.4,229.6 -5995.8,145.4 			"/>
			<polygon class="st25" points="-5995.8,145.4 -5903,256.2 -5862.9,152.3 			"/>
			<polygon class="st26" points="-5871,57.2 -5806.8,152.3 -5862.9,152.3 			"/>
			<polygon class="st27" points="-5903,256.2 -5806.8,239.9 -5816,351.6 			"/>
			<polygon class="st28" points="-5680.8,403.2 -5594.6,372.2 -5670.2,281.2 			"/>
			<polygon class="st29" points="-5594.6,372.2 -5461.4,397.1 -5475.2,281.2 			"/>
			<polygon class="st30" points="-5594.6,372.2 -5660.7,466.7 -5559.4,459.9 			"/>
			<polygon class="st31" points="-5583.4,239.9 -5537,175.5 -5660.7,166 			"/>
			<polygon class="st32" points="-5753,17.4 -5806.8,152.3 -5665.9,57.2 			"/>
			<polygon class="st33" points="-5425.3,166 -5366.1,129.1 -5317.9,245.9 			"/>
			<polygon class="st34" points="-5317.9,245.9 -5317.9,381.7 -5251.8,372.2 			"/>
			<polygon class="st35" points="-5317.9,381.7 -5301.6,477 -5251.8,372.2 			"/>
			<polygon class="st36" points="-5219.1,152.3 -5212.3,255.4 -5137.2,129.1 			"/>
			<polygon class="st37" points="-5489.8,-43.6 -5429.6,57.2 -5374.6,1.6 			"/>
			<polygon class="st38" points="-5244.9,-104.3 -5212.3,6.8 -5122.9,-65.9 			"/>
			<polygon class="st39" points="-5313.6,-174.8 -5244.9,-104.3 -5366.1,-90 			"/>
			<polygon class="st40" points="-5551.6,-109.8 -5598.3,-150.1 -5683.1,-53.9 			"/>
			<polygon class="st41" points="-6008.4,33.1 -5871,57.2 -5909.9,-43.6 			"/>
			<polygon class="st42" points="-6133.3,57.2 -6205.5,17.4 -6101.2,-90 -6041.6,-79.1 			"/>
			<polygon class="st43" points="-5894.4,-179.9 -5816,-104.3 -5781.6,-185.7 			"/>
			<polygon class="st44" points="-5598.3,-150.1 -5559.4,-284.2 -5419,-205.7 			"/>
			<polygon class="st45" points="-5200,-351.5 -5068,-351.5 -5127.3,-289.5 			"/>
			<polygon class="st46" points="-6701.2,-215.4 -6595.5,-202.6 -6601.5,-291.9 			"/>
			<polygon class="st47" points="-6732.1,-323.9 -6732.1,-202.6 -6701.2,-215.4 -6686.6,-319.4 			"/>
			<polygon class="st48" points="-6701.2,-215.4 -6686.6,-319.4 -6601.5,-291.9 			"/>
			<polygon class="st49" points="-6595.5,-202.6 -6601.5,-291.9 -6444.3,-262.7 -6459.8,-215.4 			"/>
			<polygon class="st50" points="-6661.7,-90 -6601.5,-84.8 -6459.8,-215.4 -6595.5,-202.6 			"/>
			<polygon class="st51" points="-6328.3,-309.1 -6444.3,-262.7 -6459.8,-215.4 -6318,-175.9 			"/>
			<polygon class="st52" points="-6213.2,-202.6 -6318,-175.9 -6328.3,-309.1 			"/>
			<polygon class="st53" points="-6472.7,-53.9 -6340.4,-84.8 -6318,-175.9 -6459.8,-215.4 			"/>
			<polygon class="st54" points="-6601.5,-84.8 -6472.7,-53.9 -6459.8,-215.4 			"/>
			<polygon class="st55" points="-6641.9,17.4 -6601.5,50.9 -6472.7,-53.9 -6601.5,-84.8 			"/>
			<polygon class="st56" points="-6661.7,-90 -6641.9,17.4 -6601.5,-84.8 			"/>
			<polygon class="st57" points="-6340.4,-84.8 -6251,-43.6 -6318,-175.9 			"/>
			<polygon class="st58" points="-6213.2,-202.6 -6251,-43.6 -6318,-175.9 			"/>
			<polygon class="st59" points="-6101.2,-90 -6251,-43.6 -6205.5,17.4 			"/>
			<polygon class="st60" points="-6213.2,-202.6 -6101.2,-90 -6251,-43.6 			"/>
			<polygon class="st61" points="-6123.6,-205.7 -6101.2,-90 -6213.2,-202.6 			"/>
			<polygon class="st62" points="-6152.2,-276.2 -6123.6,-205.7 -6213.2,-202.6 			"/>
			<polygon class="st63" points="-6247.3,-317.4 -6152.2,-276.2 -6213.2,-202.6 			"/>
			<polygon class="st64" points="-6328.3,-309.1 -6247.3,-317.4 -6213.2,-202.6 			"/>
			<polygon class="st65" points="-5995.8,-179.9 -6123.6,-205.7 -6101.2,-90 			"/>
			<polygon class="st66" points="-5976.9,-273.3 -5995.8,-179.9 -6123.6,-205.7 			"/>
			<polygon class="st67" points="-6152.2,-276.2 -5976.9,-273.3 -6123.6,-205.7 			"/>
			<polygon class="st68" points="-5894.4,-179.9 -5909.9,-43.6 -5816,-104.3 			"/>
			<polygon class="st69" points="-5683.1,-53.9 -5753,17.4 -5665.9,57.2 			"/>
			<polygon class="st70" points="-5871,57.2 -5862.9,152.3 -5995.8,145.4 			"/>
			<polygon class="st10" points="-5680.8,-202.6 -5683.1,-53.9 -5598.3,-150.1 			"/>
			<polygon class="st71" points="-5781.6,-185.7 -5816,-104.3 -5683.1,-53.9 -5680.8,-202.6 			"/>
			<polygon class="st72" points="-6041.6,-79.1 -5909.9,-43.6 -6008.4,33.1 			"/>
			<polygon class="st73" points="-6601.5,50.9 -6454.4,50.9 -6472.7,-53.9 			"/>
			<polygon class="st74" points="-6539.1,176.5 -6454.4,50.9 -6601.5,50.9 -6674.8,176.5 			"/>
			<polygon class="st75" points="-6444.3,128.7 -6454.4,50.9 -6539.1,176.5 			"/>
			<polygon class="st76" points="-6323,9.3 -6472.7,-53.9 -6454.4,50.9 			"/>
			<polygon class="st77" points="-6361,142.9 -6444.3,128.7 -6454.4,50.9 -6323,9.3 			"/>
			<polygon class="st42" points="-6213.2,126.5 -6205.5,17.4 -6323,9.3 -6361,142.9 			"/>
			<polygon class="st78" points="-6323,9.3 -6340.4,-84.8 -6472.7,-53.9 			"/>
			<polygon class="st79" points="-6251,-43.6 -6323,9.3 -6340.4,-84.8 			"/>
			<polygon class="st80" points="-6205.5,17.4 -6251,-43.6 -6323,9.3 			"/>
			<polygon class="st81" points="-6213.2,126.5 -6133.3,57.2 -6205.5,17.4 			"/>
			<polygon class="st82" points="-6123.6,166 -5995.8,145.4 -6133.3,57.2 			"/>
			<polygon class="st83" points="-5909.9,-43.6 -5871,57.2 -5753,17.4 			"/>
			<polygon class="st42" points="-5995.8,-179.9 -6041.6,-79.1 -5909.9,-43.6 			"/>
			<polygon class="st84" points="-5862.9,-317.7 -5894.4,-179.9 -5781.6,-185.7 			"/>
			<polygon class="st85" points="-5816,-104.3 -5753,17.4 -5683.1,-53.9 			"/>
			<polygon class="st86" points="-5665.9,57.2 -5660.7,166 -5537,175.5 			"/>
			<polygon class="st87" points="-5806.8,152.3 -5806.8,239.9 -5862.9,152.3 			"/>
			<polygon class="st88" points="-5670.2,281.2 -5583.4,239.9 -5594.6,372.2 			"/>
			<polygon class="st89" points="-5806.8,239.9 -5816,351.6 -5670.2,281.2 			"/>
			<polygon class="st90" points="-5475.2,281.2 -5461.4,397.1 -5317.9,381.7 			"/>
			<polygon class="st91" points="-5425.3,166 -5429.6,57.2 -5366.1,129.1 			"/>
			<polygon class="st92" points="-5489.8,-43.6 -5551.6,13.1 -5429.6,57.2 			"/>
			<polygon class="st93" points="-5683.1,-53.9 -5551.6,13.1 -5665.9,57.2 			"/>
			<polygon class="st94" points="-6029.3,267.4 -5988.1,390.3 -5903,256.2 			"/>
			<polygon class="st95" points="-6114.4,229.6 -6233.8,256.2 -6123.6,166 			"/>
			<polygon class="st96" points="-6213.2,126.5 -6233.8,256.2 -6123.6,166 			"/>
			<polygon class="st97" points="-5537,175.5 -5583.4,239.9 -5475.2,281.2 			"/>
			<polygon class="st98" points="-5537,175.5 -5551.6,13.1 -5429.6,57.2 			"/>
			<polygon class="st99" points="-6101.2,-90 -5995.8,-179.9 -6041.6,-79.1 			"/>
			<polygon class="st71" points="-6361,142.9 -6233.8,256.2 -6213.2,126.5 			"/>
			<polygon class="st83" points="-6008.4,33.1 -5995.8,145.4 -5871,57.2 			"/>
			<polygon class="st100" points="-6133.3,57.2 -6008.4,33.1 -6041.6,-79.1 			"/>
			<polygon class="st101" points="-5995.8,-179.9 -5894.4,-179.9 -5909.9,-43.6 			"/>
			<polygon class="st102" points="-5429.6,57.2 -5374.6,1.6 -5366.1,129.1 			"/>
			<polygon class="st103" points="-5660.7,166 -5670.2,281.2 -5806.8,239.9 			"/>
			<polygon class="st104" points="-5489.8,-43.6 -5366.1,-90 -5374.6,1.6 			"/>
			<polygon class="st105" points="-5366.1,129.1 -5219.1,152.3 -5317.9,245.9 			"/>
			<polygon class="st106" points="-5871,57.2 -5806.8,152.3 -5753,17.4 			"/>
			<polygon class="st107" points="-5988.1,390.3 -5894.4,390.3 -5909.9,477 			"/>
			<polygon class="st108" points="-5816,351.6 -5680.8,403.2 -5816,516.6 			"/>
			<polygon class="st109" points="-5670.2,281.2 -5680.8,403.2 -5816,351.6 			"/>
			<polygon class="st110" points="-5660.7,166 -5583.4,239.9 -5670.2,281.2 			"/>
			<polygon class="st111" points="-5683.1,-53.9 -5551.6,-109.8 -5551.6,13.1 			"/>
			<polygon class="st112" points="-5816,-104.3 -5753,17.4 -5909.9,-43.6 			"/>
			<polygon class="st113" points="-5551.6,-109.8 -5489.8,-43.6 -5551.6,13.1 			"/>
			<polygon class="st114" points="-5419,-205.7 -5366.1,-90 -5313.6,-174.8 			"/>
			<polygon class="st115" points="-5244.9,-104.3 -5374.6,1.6 -5212.3,6.8 			"/>
			<polygon class="st116" points="-5219.1,152.3 -5137.2,129.1 -5212.3,6.8 			"/>
			<polygon class="st117" points="-5425.3,166 -5317.9,245.9 -5475.2,281.2 			"/>
			<polygon class="st118" points="-5219.1,152.3 -5212.3,255.4 -5317.9,245.9 			"/>
			<polygon class="st119" points="-5425.3,166 -5429.6,57.2 -5537,175.5 			"/>
			<polygon class="st28" points="-5594.6,372.2 -5475.2,281.2 -5583.4,239.9 			"/>
			<polygon class="st30" points="-5317.9,245.9 -5317.9,381.7 -5475.2,281.2 			"/>
			<polygon class="st120" points="-6029.3,267.4 -5995.8,145.4 -5903,256.2 			"/>
			<polygon class="st121" points="-5665.9,57.2 -5660.7,166 -5806.8,239.9 			"/>
			<polygon class="st6" points="-5806.8,152.3 -5806.8,239.9 -5665.9,57.2 			"/>
			<polygon class="st122" points="-5374.6,1.6 -5366.1,129.1 -5212.3,6.8 			"/>
			<polygon class="st112" points="-6133.3,57.2 -5995.8,145.4 -6008.4,33.1 			"/>
			<polygon class="st35" points="-5458,487.4 -5317.9,381.7 -5301.6,477 			"/>
			<polygon class="st123" points="-6092.1,477 -6123.6,381.7 -6233.8,453 			"/>
			<polygon class="st124" points="-6557.3,494.2 -6674.8,590.8 -6509.6,590.8 -6472.7,504.5 			"/>
			<polygon class="st125" points="-6251,568.1 -6355,459.9 -6375.6,568.1 			"/>
			<polygon class="st126" points="-6205.5,342.2 -6340.4,360.2 -6233.8,256.2 			"/>
			<polygon class="st127" points="-5680.8,-202.6 -5559.4,-284.2 -5598.3,-150.1 			"/>
			<polygon class="st128" points="-5419,-205.7 -5313.6,-284.2 -5313.6,-174.8 			"/>
			<polygon class="st129" points="-5205.4,-174.8 -5244.9,-104.3 -5122.9,-65.9 			"/>
			<polygon class="st130" points="-5894.4,390.3 -5903,256.2 -5988.1,390.3 			"/>
			<polygon class="st131" points="-6205.5,342.2 -6114.4,229.6 -6123.6,381.7 			"/>
			<polygon class="st132" points="-6233.8,453 -6340.4,360.2 -6355,459.9 			"/>
			<polygon class="st133" points="-6361,142.9 -6361,245.9 -6491.7,267.4 			"/>
			<polygon class="st134" points="-6539.1,176.5 -6601.5,228.3 -6694.6,245.9 -6674.8,176.5 			"/>
			<polygon class="st135" points="-6564.6,390.3 -6444.3,403.2 -6557.3,494.2 			"/>
			<polygon class="st136" points="-6472.7,504.5 -6355,459.9 -6375.6,568.1 			"/>
			<polygon class="st137" points="-6123.6,381.7 -5988.1,390.3 -6092.1,477 			"/>
			<polygon class="st138" points="-5909.9,477 -5816,516.6 -5894.4,590.8 			"/>
			<polygon class="st139" points="-5559.4,459.9 -5461.4,397.1 -5594.6,372.2 			"/>
			<polygon class="st140" points="-5301.6,477 -5251.8,372.2 -5158.4,416 -5219.1,516.6 			"/>
			<polygon class="st141" points="-5212.3,255.4 -5090.8,239.9 -5137.2,129.1 			"/>
			<polygon class="st142" points="-5419,-205.7 -5489.8,-43.6 -5366.1,-90 			"/>
			<polygon class="st143" points="-5680.8,-202.6 -5773.6,-331.1 -5781.6,-185.7 			"/>
			<polygon class="st144" points="-6029.3,267.4 -6123.6,381.7 -6114.4,229.6 			"/>
			<polygon class="st145" points="-5665.9,57.2 -5537,175.5 -5551.6,13.1 			"/>
			<polygon class="st146" points="-5251.8,372.2 -5212.3,255.4 -5158.4,416 			"/>
			<polygon class="st147" points="-5122.9,-65.9 -5090.8,-217.2 -5205.4,-174.8 			"/>
			<polygon class="st148" points="-5446,-303.7 -5419,-205.7 -5559.4,-284.2 			"/>
			<polygon class="st149" points="-5598.3,-150.1 -5419,-205.7 -5551.6,-109.8 			"/>
			<polygon class="st150" points="-5205.4,-174.8 -5200,-351.5 -5127.3,-289.5 			"/>
			<polygon class="st151" points="-5212.3,6.8 -5219.1,152.3 -5366.1,129.1 			"/>
			<polygon class="st152" points="-5976.9,-273.3 -5862.9,-317.7 -5894.4,-179.9 -5995.8,-179.9 			"/>
			<polygon class="st153" points="-6233.8,256.2 -6205.5,342.2 -6114.4,229.6 			"/>
			<polygon class="st154" points="-6361,245.9 -6444.3,403.2 -6491.7,267.4 			"/>
			<polygon class="st155" points="-6601.5,228.3 -6674.8,398.9 -6564.6,390.3 			"/>
			<polygon class="st156" points="-6444.3,128.7 -6491.7,267.4 -6361,142.9 			"/>
			<polygon class="st157" points="-5773.6,-331.1 -5862.9,-317.7 -5781.6,-185.7 			"/>
			<polygon class="st158" points="-5680.8,-202.6 -5677.6,-326.3 -5773.6,-331.1 			"/>
			<polygon class="st159" points="-5551.6,-109.8 -5489.8,-43.6 -5419,-205.7 			"/>
			<polygon class="st160" points="-5366.1,-90 -5374.6,1.6 -5244.9,-104.3 			"/>
			<polygon class="st161" points="-5212.3,6.8 -5122.9,-65.9 -5137.2,6.8 			"/>
			<polygon class="st162" points="-6340.4,360.2 -6361,245.9 -6233.8,256.2 			"/>
			<polygon class="st163" points="-6233.8,453 -6251,568.1 -6092.1,477 			"/>
			<polygon class="st164" points="-5894.4,390.3 -5816,351.6 -5816,516.6 			"/>
			<path class="st165" d="M-6701.2-215.4"/>
			<polygon class="st166" points="-5458,487.4 -5559.4,459.9 -5461.4,397.1 -5317.9,381.7 			"/>
			<polygon class="st167" points="-5219.1,516.6 -5113.2,520.6 -5158.4,416 			"/>
			<polygon class="st168" points="-5243.8,577.9 -5219.1,516.6 -5301.6,477 -5369.8,560.7 			"/>
			<polygon class="st169" points="-5458,487.4 -5438.7,560.7 -5369.8,560.7 -5301.6,477 			"/>
			<polygon class="st170" points="-5559.4,459.9 -5578.7,590.8 -5559.4,590.8 -5458,487.4 			"/>
			<polygon class="st171" points="-5738.4,590.8 -5599.4,590.8 -5660.7,466.7 			"/>
			<polygon class="st172" points="-5660.7,466.7 -5559.4,459.9 -5578.7,590.8 -5599.4,590.8 			"/>
			<polygon class="st173" points="-5894.4,590.8 -5738.4,590.8 -5816,516.6 			"/>
			<polygon class="st174" points="-5660.7,466.7 -5738.4,590.8 -5816,516.6 			"/>
			<polygon class="st175" points="-6251,568.1 -6178.7,590.8 -6092.1,590.8 -6092.1,477 			"/>
			<polygon class="st176" points="-5894.4,590.8 -5983.2,466.2 -6018,590.8 			"/>
			<polygon class="st177" points="-5894.4,390.3 -5909.9,477 -5816,516.6 			"/>
			<polygon class="st178" points="-5988.1,390.3 -5983.2,466.2 -6092.1,477 			"/>
			<polygon class="st179" points="-5903,256.2 -5894.4,390.3 -5816,351.6 			"/>
			<polygon class="st180" points="-6340.4,360.2 -6355,459.9 -6444.3,403.2 			"/>
			<polygon class="st181" points="-6178.7,590.8 -6251,568.1 -6375.6,568.1 -6277.1,590.8 			"/>
			<polygon class="st182" points="-6472.7,504.5 -6509.6,590.8 -6388.5,590.8 -6375.6,568.1 			"/>
			<polygon class="st183" points="-6444.3,403.2 -6472.7,504.5 -6355,459.9 			"/>
			<polygon class="st125" points="-6388.5,590.8 -6277.1,590.8 -6375.6,568.1 			"/>
			<polygon class="st184" points="-6444.3,403.2 -6472.7,504.5 -6557.3,494.2 			"/>
			<polygon class="st185" points="-6491.7,267.4 -6564.6,390.3 -6444.3,403.2 			"/>
			<polygon class="st186" points="-6674.8,590.8 -6732.1,590.8 -6732.1,510.6 -6694.6,473.6 -6557.3,494.2 			"/>
			<polygon class="st187" points="-6732.1,257.9 -6732.1,386 -6674.8,398.9 -6601.5,228.3 -6694.6,245.9 			"/>
			<polygon class="st188" points="-6732.1,510.6 -6694.6,473.6 -6732.1,466.2 			"/>
			<polygon class="st189" points="-6674.8,398.9 -6732.1,424.6 -6732.1,466.2 -6694.6,473.6 			"/>
			<polygon class="st190" points="-6732.1,386 -6732.1,424.6 -6674.8,398.9 			"/>
			<polygon class="st191" points="-5219.1,516.6 -5243.8,577.9 -5113.2,520.6 			"/>
			<polygon class="st192" points="-5158.4,416 -5056.8,471.9 -5056.8,501.3 -5113.2,520.6 			"/>
			<polygon class="st193" points="-5243.8,577.9 -5243.8,590.8 -5056.8,590.8 -5113.2,520.6 			"/>
			<polygon class="st194" points="-5369.8,560.7 -5379.8,590.8 -5243.8,590.8 -5243.8,577.9 			"/>
			<polygon class="st195" points="-5458,487.4 -5438.7,560.7 -5518.3,590.8 -5559.4,590.8 			"/>
			<polygon class="st196" points="-5379.8,590.8 -5369.8,560.7 -5438.7,560.7 -5518.3,590.8 			"/>
			<polygon class="st168" points="-5158.4,416 -5056.8,358.9 -5056.8,471.9 			"/>
			<polygon class="st197" points="-5113.2,520.6 -5056.8,501.3 -5056.8,590.8 			"/>
			<polygon class="st198" points="-5317.9,245.9 -5251.8,372.2 -5212.3,255.4 			"/>
			<polygon class="st199" points="-5212.3,255.4 -5158.4,416 -5090.8,239.9 			"/>
			<polygon class="st200" points="-5090.8,239.9 -5056.8,192.2 -5056.8,70.6 -5137.2,129.1 			"/>
			<polygon class="st201" points="-5158.4,416 -5056.8,358.9 -5056.8,287.8 -5090.8,239.9 			"/>
			<polygon class="st202" points="-5056.8,192.2 -5056.8,245.9 -5090.8,239.9 			"/>
			<polygon class="st203" points="-5056.8,287.8 -5056.8,245.9 -5090.8,239.9 			"/>
			<polygon class="st204" points="-5212.3,6.8 -5137.2,129.1 -5137.2,6.8 			"/>
			<polygon class="st205" points="-5056.8,70.6 -5137.2,129.1 -5137.2,6.8 -5056.8,52.6 			"/>
			<polygon class="st109" points="-5475.2,281.2 -5537,175.5 -5425.3,166 			"/>
			<polygon class="st206" points="-5056.8,52.6 -5056.8,-82 -5122.9,-65.9 -5137.2,6.8 			"/>
			<polygon class="st207" points="-5090.8,-217.2 -5056.8,-199.6 -5056.8,-82 -5122.9,-65.9 			"/>
			<polygon class="st208" points="-5127.3,-289.5 -5090.8,-217.2 -5205.4,-174.8 			"/>
			<polygon class="st209" points="-5068,-351.5 -5127.3,-289.5 -5056.8,-307.1 -5056.8,-351.5 			"/>
			<polygon class="st210" points="-5090.8,-217.2 -5056.8,-307.1 -5056.8,-199.6 			"/>
			<polygon class="st211" points="-5127.3,-289.5 -5056.8,-307.1 -5090.8,-217.2 			"/>
			<polygon class="st184" points="-5313.6,-284.2 -5205.4,-174.8 -5313.6,-174.8 			"/>
			<polygon class="st212" points="-5244.9,-104.3 -5205.4,-174.8 -5313.6,-174.8 			"/>
			<polygon class="st213" points="-5313.6,-284.2 -5200,-351.5 -5205.4,-174.8 			"/>
			<polygon class="st214" points="-5446,-303.7 -5313.6,-284.2 -5419,-205.7 			"/>
			<polygon class="st215" points="-5677.6,-326.3 -5559.4,-284.2 -5680.8,-202.6 			"/>
			<polygon class="st216" points="-5327.9,-351.5 -5313.6,-284.2 -5200,-351.5 			"/>
			<polygon class="st217" points="-5446,-303.7 -5427.9,-351.5 -5327.9,-351.5 -5313.6,-284.2 			"/>
			<polygon class="st218" points="-5559.4,-284.2 -5573.2,-351.5 -5520.7,-351.5 -5446,-303.7 			"/>
			<polygon class="st219" points="-5427.9,-351.5 -5446,-303.7 -5520.7,-351.5 			"/>
			<polygon class="st220" points="-5677.6,-326.3 -5624.2,-351.5 -5573.2,-351.5 -5559.4,-284.2 			"/>
			<polygon class="st221" points="-5773.6,-351.5 -5773.6,-331.1 -5677.6,-326.3 -5669.8,-351.5 			"/>
			<polygon class="st222" points="-5624.2,-351.5 -5669.8,-351.5 -5677.6,-326.3 			"/>
			<polygon class="st223" points="-5862.9,-317.7 -5813,-351.5 -5773.6,-351.5 -5773.6,-331.1 			"/>
			<polygon class="st224" points="-5976.9,-273.3 -5916.6,-351.5 -5813,-351.5 -5862.9,-317.7 			"/>
			<polygon class="st225" points="-6213.2,126.5 -6133.3,57.2 -6123.6,166 			"/>
			<polygon class="st226" points="-6641.9,17.4 -6601.5,50.9 -6674.8,176.5 			"/>
			<polygon class="st227" points="-6732.1,163.2 -6732.1,257.9 -6694.6,245.9 -6674.8,176.5 			"/>
			<polygon class="st228" points="-6732.1,39.1 -6732.1,163.2 -6674.8,176.5 -6641.9,17.4 			"/>
			<polygon class="st229" points="-6732.1,-43.6 -6732.1,39.1 -6641.9,17.4 			"/>
			<polygon class="st230" points="-6732.1,-71.5 -6732.1,-43.6 -6641.9,17.4 -6661.7,-90 			"/>
			<polygon class="st231" points="-6732.1,-142 -6732.1,-71.5 -6661.7,-90 			"/>
			<polygon class="st232" points="-6732.1,-202.6 -6701.2,-215.4 -6661.7,-90 -6732.1,-142 			"/>
			<polygon class="st233" points="-6595.5,-202.6 -6661.7,-90 -6701.2,-215.4 			"/>
			<polygon class="st234" points="-6732.1,-351.5 -6732.1,-323.9 -6686.6,-319.4 -6696.9,-351.5 			"/>
			<polygon class="st235" points="-6648.4,-351.5 -6686.6,-319.4 -6696.9,-351.5 			"/>
			<polygon class="st236" points="-6577.6,-351.5 -6601.5,-291.9 -6686.6,-319.4 -6648.4,-351.5 			"/>
			<polygon class="st46" points="-6395.3,-351.5 -6444.3,-262.7 -6440.2,-351.5 			"/>
			<polygon class="st237" points="-6577.6,-351.5 -6601.5,-291.9 -6444.3,-262.7 -6440.2,-351.5 			"/>
			<polygon class="st238" points="-6335.9,-351.5 -6328.3,-309.1 -6444.3,-262.7 -6395.3,-351.5 			"/>
			<polygon class="st239" points="-6270.8,-351.5 -6328.3,-309.1 -6335.9,-351.5 			"/>
			<polygon class="st240" points="-6247.3,-317.4 -6231.5,-351.5 -6270.8,-351.5 -6328.3,-309.1 			"/>
			<polygon class="st241" points="-6120.2,-351.5 -6152.2,-276.2 -6247.3,-317.4 -6152.2,-351.5 			"/>
			<polygon class="st241" points="-6231.5,-351.5 -6247.3,-317.4 -6152.2,-351.5 			"/>
			<polygon class="st242" points="-5976.9,-273.3 -6029.2,-351.5 -6120.2,-351.5 -6152.2,-276.2 			"/>
			<polygon class="st243" points="-5960.1,-351.5 -5976.9,-273.3 -5916.6,-351.5 			"/>
			<polygon class="st244" points="-6029.2,-351.5 -5960.1,-351.5 -5976.9,-273.3 			"/>
			<polygon class="st245" points="-5862.9,152.3 -5903,256.2 -5806.8,239.9 			"/>
			<polygon class="st246" points="-5995.8,145.4 -6029.3,267.4 -6114.4,229.6 			"/>
			<polygon class="st247" points="-5680.8,403.2 -5660.7,466.7 -5594.6,372.2 			"/>
			<polygon class="st19" points="-5983.2,466.2 -6018,590.8 -6029.3,590.8 -6092.1,477 			"/>
			<polygon class="st248" points="-6092.1,590.8 -6029.3,590.8 -6092.1,477 			"/>
			<polygon class="st249" points="-6361,245.9 -6340.4,360.2 -6444.3,403.2 			"/>
			<polygon class="st13" points="-6361,142.9 -6361,245.9 -6233.8,256.2 			"/>
			<polygon class="st14" points="-6674.8,398.9 -6694.6,473.6 -6557.3,494.2 -6564.6,390.3 			"/>
			<polygon class="st15" points="-6491.7,267.4 -6564.6,390.3 -6601.5,228.3 			"/>
			<polygon class="st16" points="-6601.5,228.3 -6539.1,176.5 -6444.3,128.7 -6491.7,267.4 			"/>
			<polygon class="st17" points="-6205.5,342.2 -6233.8,453 -6340.4,360.2 			"/>
			<polygon class="st18" points="-6233.8,453 -6205.5,342.2 -6123.6,381.7 			"/>
			<polygon class="st19" points="-5983.2,466.2 -5988.1,390.3 -5909.9,477 			"/>
			<polygon class="st20" points="-5909.9,477 -5894.4,590.8 -5983.2,466.2 			"/>
			<polygon class="st21" points="-6233.8,453 -6251,568.1 -6355,459.9 			"/>
			<polygon class="st22" points="-5680.8,403.2 -5660.7,466.7 -5816,516.6 			"/>
			<polygon class="st23" points="-6029.3,267.4 -5988.1,390.3 -6123.6,381.7 			"/>
			<polygon class="st24" points="-6123.6,166 -6114.4,229.6 -5995.8,145.4 			"/>
			<polygon class="st25" points="-5995.8,145.4 -5903,256.2 -5862.9,152.3 			"/>
			<polygon class="st26" points="-5871,57.2 -5806.8,152.3 -5862.9,152.3 			"/>
			<polygon class="st27" points="-5903,256.2 -5806.8,239.9 -5816,351.6 			"/>
			<polygon class="st28" points="-5680.8,403.2 -5594.6,372.2 -5670.2,281.2 			"/>
			<polygon class="st29" points="-5594.6,372.2 -5461.4,397.1 -5475.2,281.2 			"/>
			<polygon class="st30" points="-5594.6,372.2 -5660.7,466.7 -5559.4,459.9 			"/>
			<polygon class="st31" points="-5583.4,239.9 -5537,175.5 -5660.7,166 			"/>
			<polygon class="st32" points="-5753,17.4 -5806.8,152.3 -5665.9,57.2 			"/>
			<polygon class="st33" points="-5425.3,166 -5366.1,129.1 -5317.9,245.9 			"/>
			<polygon class="st34" points="-5317.9,245.9 -5317.9,381.7 -5251.8,372.2 			"/>
			<polygon class="st35" points="-5317.9,381.7 -5301.6,477 -5251.8,372.2 			"/>
			<polygon class="st36" points="-5219.1,152.3 -5212.3,255.4 -5137.2,129.1 			"/>
			<polygon class="st37" points="-5489.8,-43.6 -5429.6,57.2 -5374.6,1.6 			"/>
			<polygon class="st38" points="-5244.9,-104.3 -5212.3,6.8 -5122.9,-65.9 			"/>
			<polygon class="st39" points="-5313.6,-174.8 -5244.9,-104.3 -5366.1,-90 			"/>
			<polygon class="st40" points="-5551.6,-109.8 -5598.3,-150.1 -5683.1,-53.9 			"/>
			<polygon class="st41" points="-6008.4,33.1 -5871,57.2 -5909.9,-43.6 			"/>
			<polygon class="st42" points="-6133.3,57.2 -6205.5,17.4 -6101.2,-90 -6041.6,-79.1 			"/>
			<polygon class="st43" points="-5894.4,-179.9 -5816,-104.3 -5781.6,-185.7 			"/>
			<polygon class="st44" points="-5598.3,-150.1 -5559.4,-284.2 -5419,-205.7 			"/>
			<polygon class="st45" points="-5200,-351.5 -5068,-351.5 -5127.3,-289.5 			"/>
			<polygon class="st46" points="-6701.2,-215.4 -6595.5,-202.6 -6601.5,-291.9 			"/>
			<polygon class="st47" points="-6732.1,-323.9 -6732.1,-202.6 -6701.2,-215.4 -6686.6,-319.4 			"/>
			<polygon class="st48" points="-6701.2,-215.4 -6686.6,-319.4 -6601.5,-291.9 			"/>
			<polygon class="st49" points="-6595.5,-202.6 -6601.5,-291.9 -6444.3,-262.7 -6459.8,-215.4 			"/>
			<polygon class="st50" points="-6661.7,-90 -6601.5,-84.8 -6459.8,-215.4 -6595.5,-202.6 			"/>
			<polygon class="st51" points="-6328.3,-309.1 -6444.3,-262.7 -6459.8,-215.4 -6318,-175.9 			"/>
			<polygon class="st52" points="-6213.2,-202.6 -6318,-175.9 -6328.3,-309.1 			"/>
			<polygon class="st53" points="-6472.7,-53.9 -6340.4,-84.8 -6318,-175.9 -6459.8,-215.4 			"/>
			<polygon class="st54" points="-6601.5,-84.8 -6472.7,-53.9 -6459.8,-215.4 			"/>
			<polygon class="st55" points="-6641.9,17.4 -6601.5,50.9 -6472.7,-53.9 -6601.5,-84.8 			"/>
			<polygon class="st56" points="-6661.7,-90 -6641.9,17.4 -6601.5,-84.8 			"/>
			<polygon class="st57" points="-6340.4,-84.8 -6251,-43.6 -6318,-175.9 			"/>
			<polygon class="st58" points="-6213.2,-202.6 -6251,-43.6 -6318,-175.9 			"/>
			<polygon class="st59" points="-6101.2,-90 -6251,-43.6 -6205.5,17.4 			"/>
			<polygon class="st60" points="-6213.2,-202.6 -6101.2,-90 -6251,-43.6 			"/>
			<polygon class="st61" points="-6123.6,-205.7 -6101.2,-90 -6213.2,-202.6 			"/>
			<polygon class="st62" points="-6152.2,-276.2 -6123.6,-205.7 -6213.2,-202.6 			"/>
			<polygon class="st63" points="-6247.3,-317.4 -6152.2,-276.2 -6213.2,-202.6 			"/>
			<polygon class="st64" points="-6328.3,-309.1 -6247.3,-317.4 -6213.2,-202.6 			"/>
			<polygon class="st65" points="-5995.8,-179.9 -6123.6,-205.7 -6101.2,-90 			"/>
			<polygon class="st66" points="-5976.9,-273.3 -5995.8,-179.9 -6123.6,-205.7 			"/>
			<polygon class="st67" points="-6152.2,-276.2 -5976.9,-273.3 -6123.6,-205.7 			"/>
			<polygon class="st68" points="-5894.4,-179.9 -5909.9,-43.6 -5816,-104.3 			"/>
			<polygon class="st69" points="-5683.1,-53.9 -5753,17.4 -5665.9,57.2 			"/>
			<polygon class="st70" points="-5871,57.2 -5862.9,152.3 -5995.8,145.4 			"/>
			<polygon class="st10" points="-5680.8,-202.6 -5683.1,-53.9 -5598.3,-150.1 			"/>
			<polygon class="st71" points="-5781.6,-185.7 -5816,-104.3 -5683.1,-53.9 -5680.8,-202.6 			"/>
			<polygon class="st72" points="-6041.6,-79.1 -5909.9,-43.6 -6008.4,33.1 			"/>
			<polygon class="st73" points="-6601.5,50.9 -6454.4,50.9 -6472.7,-53.9 			"/>
			<polygon class="st74" points="-6539.1,176.5 -6454.4,50.9 -6601.5,50.9 -6674.8,176.5 			"/>
			<polygon class="st75" points="-6444.3,128.7 -6454.4,50.9 -6539.1,176.5 			"/>
			<polygon class="st76" points="-6323,9.3 -6472.7,-53.9 -6454.4,50.9 			"/>
			<polygon class="st77" points="-6361,142.9 -6444.3,128.7 -6454.4,50.9 -6323,9.3 			"/>
			<polygon class="st42" points="-6213.2,126.5 -6205.5,17.4 -6323,9.3 -6361,142.9 			"/>
			<polygon class="st78" points="-6323,9.3 -6340.4,-84.8 -6472.7,-53.9 			"/>
			<polygon class="st79" points="-6251,-43.6 -6323,9.3 -6340.4,-84.8 			"/>
			<polygon class="st80" points="-6205.5,17.4 -6251,-43.6 -6323,9.3 			"/>
			<polygon class="st81" points="-6213.2,126.5 -6133.3,57.2 -6205.5,17.4 			"/>
			<polygon class="st82" points="-6123.6,166 -5995.8,145.4 -6133.3,57.2 			"/>
			<polygon class="st83" points="-5909.9,-43.6 -5871,57.2 -5753,17.4 			"/>
			<polygon class="st42" points="-5995.8,-179.9 -6041.6,-79.1 -5909.9,-43.6 			"/>
			<polygon class="st84" points="-5862.9,-317.7 -5894.4,-179.9 -5781.6,-185.7 			"/>
			<polygon class="st85" points="-5816,-104.3 -5753,17.4 -5683.1,-53.9 			"/>
			<polygon class="st86" points="-5665.9,57.2 -5660.7,166 -5537,175.5 			"/>
			<polygon class="st87" points="-5806.8,152.3 -5806.8,239.9 -5862.9,152.3 			"/>
			<polygon class="st88" points="-5670.2,281.2 -5583.4,239.9 -5594.6,372.2 			"/>
			<polygon class="st89" points="-5806.8,239.9 -5816,351.6 -5670.2,281.2 			"/>
			<polygon class="st90" points="-5475.2,281.2 -5461.4,397.1 -5317.9,381.7 			"/>
			<polygon class="st91" points="-5425.3,166 -5429.6,57.2 -5366.1,129.1 			"/>
			<polygon class="st92" points="-5489.8,-43.6 -5551.6,13.1 -5429.6,57.2 			"/>
			<polygon class="st93" points="-5683.1,-53.9 -5551.6,13.1 -5665.9,57.2 			"/>
			<polygon class="st94" points="-6029.3,267.4 -5988.1,390.3 -5903,256.2 			"/>
			<polygon class="st95" points="-6114.4,229.6 -6233.8,256.2 -6123.6,166 			"/>
			<polygon class="st96" points="-6213.2,126.5 -6233.8,256.2 -6123.6,166 			"/>
			<polygon class="st97" points="-5537,175.5 -5583.4,239.9 -5475.2,281.2 			"/>
			<polygon class="st98" points="-5537,175.5 -5551.6,13.1 -5429.6,57.2 			"/>
			<polygon class="st99" points="-6101.2,-90 -5995.8,-179.9 -6041.6,-79.1 			"/>
			<polygon class="st71" points="-6361,142.9 -6233.8,256.2 -6213.2,126.5 			"/>
			<polygon class="st83" points="-6008.4,33.1 -5995.8,145.4 -5871,57.2 			"/>
			<polygon class="st100" points="-6133.3,57.2 -6008.4,33.1 -6041.6,-79.1 			"/>
			<polygon class="st101" points="-5995.8,-179.9 -5894.4,-179.9 -5909.9,-43.6 			"/>
			<polygon class="st102" points="-5429.6,57.2 -5374.6,1.6 -5366.1,129.1 			"/>
			<polygon class="st103" points="-5660.7,166 -5670.2,281.2 -5806.8,239.9 			"/>
			<polygon class="st104" points="-5489.8,-43.6 -5366.1,-90 -5374.6,1.6 			"/>
			<polygon class="st105" points="-5366.1,129.1 -5219.1,152.3 -5317.9,245.9 			"/>
			<polygon class="st106" points="-5871,57.2 -5806.8,152.3 -5753,17.4 			"/>
			<polygon class="st107" points="-5988.1,390.3 -5894.4,390.3 -5909.9,477 			"/>
			<polygon class="st108" points="-5816,351.6 -5680.8,403.2 -5816,516.6 			"/>
			<polygon class="st109" points="-5670.2,281.2 -5680.8,403.2 -5816,351.6 			"/>
			<polygon class="st110" points="-5660.7,166 -5583.4,239.9 -5670.2,281.2 			"/>
			<polygon class="st111" points="-5683.1,-53.9 -5551.6,-109.8 -5551.6,13.1 			"/>
			<polygon class="st112" points="-5816,-104.3 -5753,17.4 -5909.9,-43.6 			"/>
			<polygon class="st113" points="-5551.6,-109.8 -5489.8,-43.6 -5551.6,13.1 			"/>
			<polygon class="st114" points="-5419,-205.7 -5366.1,-90 -5313.6,-174.8 			"/>
			<polygon class="st115" points="-5244.9,-104.3 -5374.6,1.6 -5212.3,6.8 			"/>
			<polygon class="st116" points="-5219.1,152.3 -5137.2,129.1 -5212.3,6.8 			"/>
			<polygon class="st117" points="-5425.3,166 -5317.9,245.9 -5475.2,281.2 			"/>
			<polygon class="st118" points="-5219.1,152.3 -5212.3,255.4 -5317.9,245.9 			"/>
			<polygon class="st119" points="-5425.3,166 -5429.6,57.2 -5537,175.5 			"/>
			<polygon class="st28" points="-5594.6,372.2 -5475.2,281.2 -5583.4,239.9 			"/>
			<polygon class="st30" points="-5317.9,245.9 -5317.9,381.7 -5475.2,281.2 			"/>
			<polygon class="st120" points="-6029.3,267.4 -5995.8,145.4 -5903,256.2 			"/>
			<polygon class="st121" points="-5665.9,57.2 -5660.7,166 -5806.8,239.9 			"/>
			<polygon class="st6" points="-5806.8,152.3 -5806.8,239.9 -5665.9,57.2 			"/>
			<polygon class="st122" points="-5374.6,1.6 -5366.1,129.1 -5212.3,6.8 			"/>
			<polygon class="st112" points="-6133.3,57.2 -5995.8,145.4 -6008.4,33.1 			"/>
			<polygon class="st35" points="-5458,487.4 -5317.9,381.7 -5301.6,477 			"/>
			<polygon class="st123" points="-6092.1,477 -6123.6,381.7 -6233.8,453 			"/>
			<polygon class="st124" points="-6557.3,494.2 -6674.8,590.8 -6509.6,590.8 -6472.7,504.5 			"/>
			<polygon class="st125" points="-6251,568.1 -6355,459.9 -6375.6,568.1 			"/>
			<polygon class="st126" points="-6205.5,342.2 -6340.4,360.2 -6233.8,256.2 			"/>
			<polygon class="st127" points="-5680.8,-202.6 -5559.4,-284.2 -5598.3,-150.1 			"/>
			<polygon class="st128" points="-5419,-205.7 -5313.6,-284.2 -5313.6,-174.8 			"/>
			<polygon class="st129" points="-5205.4,-174.8 -5244.9,-104.3 -5122.9,-65.9 			"/>
			<polygon class="st130" points="-5894.4,390.3 -5903,256.2 -5988.1,390.3 			"/>
			<polygon class="st131" points="-6205.5,342.2 -6114.4,229.6 -6123.6,381.7 			"/>
			<polygon class="st132" points="-6233.8,453 -6340.4,360.2 -6355,459.9 			"/>
			<polygon class="st133" points="-6361,142.9 -6361,245.9 -6491.7,267.4 			"/>
			<polygon class="st134" points="-6539.1,176.5 -6601.5,228.3 -6694.6,245.9 -6674.8,176.5 			"/>
			<polygon class="st135" points="-6564.6,390.3 -6444.3,403.2 -6557.3,494.2 			"/>
			<polygon class="st136" points="-6472.7,504.5 -6355,459.9 -6375.6,568.1 			"/>
			<polygon class="st137" points="-6123.6,381.7 -5988.1,390.3 -6092.1,477 			"/>
			<polygon class="st138" points="-5909.9,477 -5816,516.6 -5894.4,590.8 			"/>
			<polygon class="st139" points="-5559.4,459.9 -5461.4,397.1 -5594.6,372.2 			"/>
			<polygon class="st140" points="-5301.6,477 -5251.8,372.2 -5158.4,416 -5219.1,516.6 			"/>
			<polygon class="st141" points="-5212.3,255.4 -5090.8,239.9 -5137.2,129.1 			"/>
			<polygon class="st142" points="-5419,-205.7 -5489.8,-43.6 -5366.1,-90 			"/>
			<polygon class="st143" points="-5680.8,-202.6 -5773.6,-331.1 -5781.6,-185.7 			"/>
			<polygon class="st144" points="-6029.3,267.4 -6123.6,381.7 -6114.4,229.6 			"/>
			<polygon class="st145" points="-5665.9,57.2 -5537,175.5 -5551.6,13.1 			"/>
			<polygon class="st146" points="-5251.8,372.2 -5212.3,255.4 -5158.4,416 			"/>
			<polygon class="st147" points="-5122.9,-65.9 -5090.8,-217.2 -5205.4,-174.8 			"/>
			<polygon class="st148" points="-5446,-303.7 -5419,-205.7 -5559.4,-284.2 			"/>
			<polygon class="st149" points="-5598.3,-150.1 -5419,-205.7 -5551.6,-109.8 			"/>
			<polygon class="st150" points="-5205.4,-174.8 -5200,-351.5 -5127.3,-289.5 			"/>
			<polygon class="st151" points="-5212.3,6.8 -5219.1,152.3 -5366.1,129.1 			"/>
			<polygon class="st152" points="-5976.9,-273.3 -5862.9,-317.7 -5894.4,-179.9 -5995.8,-179.9 			"/>
			<polygon class="st153" points="-6233.8,256.2 -6205.5,342.2 -6114.4,229.6 			"/>
			<polygon class="st154" points="-6361,245.9 -6444.3,403.2 -6491.7,267.4 			"/>
			<polygon class="st155" points="-6601.5,228.3 -6674.8,398.9 -6564.6,390.3 			"/>
			<polygon class="st156" points="-6444.3,128.7 -6491.7,267.4 -6361,142.9 			"/>
			<polygon class="st157" points="-5773.6,-331.1 -5862.9,-317.7 -5781.6,-185.7 			"/>
			<polygon class="st158" points="-5680.8,-202.6 -5677.6,-326.3 -5773.6,-331.1 			"/>
			<polygon class="st159" points="-5551.6,-109.8 -5489.8,-43.6 -5419,-205.7 			"/>
			<polygon class="st160" points="-5366.1,-90 -5374.6,1.6 -5244.9,-104.3 			"/>
			<polygon class="st161" points="-5212.3,6.8 -5122.9,-65.9 -5137.2,6.8 			"/>
			<polygon class="st162" points="-6340.4,360.2 -6361,245.9 -6233.8,256.2 			"/>
			<polygon class="st163" points="-6233.8,453 -6251,568.1 -6092.1,477 			"/>
			<polygon class="st164" points="-5894.4,390.3 -5816,351.6 -5816,516.6 			"/>
			<path class="st165" d="M-6701.2-215.4"/>
			<polygon class="st166" points="-5458,487.4 -5559.4,459.9 -5461.4,397.1 -5317.9,381.7 			"/>
			<polygon class="st167" points="-5219.1,516.6 -5113.2,520.6 -5158.4,416 			"/>
			<polygon class="st168" points="-5243.8,577.9 -5219.1,516.6 -5301.6,477 -5369.8,560.7 			"/>
			<polygon class="st169" points="-5458,487.4 -5438.7,560.7 -5369.8,560.7 -5301.6,477 			"/>
			<polygon class="st170" points="-5559.4,459.9 -5578.7,590.8 -5559.4,590.8 -5458,487.4 			"/>
			<polygon class="st171" points="-5738.4,590.8 -5599.4,590.8 -5660.7,466.7 			"/>
			<polygon class="st172" points="-5660.7,466.7 -5559.4,459.9 -5578.7,590.8 -5599.4,590.8 			"/>
			<polygon class="st173" points="-5894.4,590.8 -5738.4,590.8 -5816,516.6 			"/>
			<polygon class="st174" points="-5660.7,466.7 -5738.4,590.8 -5816,516.6 			"/>
			<polygon class="st175" points="-6251,568.1 -6178.7,590.8 -6092.1,590.8 -6092.1,477 			"/>
			<polygon class="st176" points="-5894.4,590.8 -5983.2,466.2 -6018,590.8 			"/>
			<polygon class="st177" points="-5894.4,390.3 -5909.9,477 -5816,516.6 			"/>
			<polygon class="st178" points="-5988.1,390.3 -5983.2,466.2 -6092.1,477 			"/>
			<polygon class="st179" points="-5903,256.2 -5894.4,390.3 -5816,351.6 			"/>
			<polygon class="st180" points="-6340.4,360.2 -6355,459.9 -6444.3,403.2 			"/>
			<polygon class="st181" points="-6178.7,590.8 -6251,568.1 -6375.6,568.1 -6277.1,590.8 			"/>
			<polygon class="st182" points="-6472.7,504.5 -6509.6,590.8 -6388.5,590.8 -6375.6,568.1 			"/>
			<polygon class="st183" points="-6444.3,403.2 -6472.7,504.5 -6355,459.9 			"/>
			<polygon class="st125" points="-6388.5,590.8 -6277.1,590.8 -6375.6,568.1 			"/>
			<polygon class="st184" points="-6444.3,403.2 -6472.7,504.5 -6557.3,494.2 			"/>
			<polygon class="st185" points="-6491.7,267.4 -6564.6,390.3 -6444.3,403.2 			"/>
			<polygon class="st186" points="-6674.8,590.8 -6732.1,590.8 -6732.1,510.6 -6694.6,473.6 -6557.3,494.2 			"/>
			<polygon class="st187" points="-6732.1,257.9 -6732.1,386 -6674.8,398.9 -6601.5,228.3 -6694.6,245.9 			"/>
			<polygon class="st188" points="-6732.1,510.6 -6694.6,473.6 -6732.1,466.2 			"/>
			<polygon class="st189" points="-6674.8,398.9 -6732.1,424.6 -6732.1,466.2 -6694.6,473.6 			"/>
			<polygon class="st190" points="-6732.1,386 -6732.1,424.6 -6674.8,398.9 			"/>
			<polygon class="st191" points="-5219.1,516.6 -5243.8,577.9 -5113.2,520.6 			"/>
			<polygon class="st192" points="-5158.4,416 -5056.8,471.9 -5056.8,501.3 -5113.2,520.6 			"/>
			<polygon class="st193" points="-5243.8,577.9 -5243.8,590.8 -5056.8,590.8 -5113.2,520.6 			"/>
			<polygon class="st194" points="-5369.8,560.7 -5379.8,590.8 -5243.8,590.8 -5243.8,577.9 			"/>
			<polygon class="st195" points="-5458,487.4 -5438.7,560.7 -5518.3,590.8 -5559.4,590.8 			"/>
			<polygon class="st196" points="-5379.8,590.8 -5369.8,560.7 -5438.7,560.7 -5518.3,590.8 			"/>
			<polygon class="st168" points="-5158.4,416 -5056.8,358.9 -5056.8,471.9 			"/>
			<polygon class="st197" points="-5113.2,520.6 -5056.8,501.3 -5056.8,590.8 			"/>
			<polygon class="st198" points="-5317.9,245.9 -5251.8,372.2 -5212.3,255.4 			"/>
			<polygon class="st199" points="-5212.3,255.4 -5158.4,416 -5090.8,239.9 			"/>
			<polygon class="st200" points="-5090.8,239.9 -5056.8,192.2 -5056.8,70.6 -5137.2,129.1 			"/>
			<polygon class="st201" points="-5158.4,416 -5056.8,358.9 -5056.8,287.8 -5090.8,239.9 			"/>
			<polygon class="st202" points="-5056.8,192.2 -5056.8,245.9 -5090.8,239.9 			"/>
			<polygon class="st203" points="-5056.8,287.8 -5056.8,245.9 -5090.8,239.9 			"/>
			<polygon class="st204" points="-5212.3,6.8 -5137.2,129.1 -5137.2,6.8 			"/>
			<polygon class="st205" points="-5056.8,70.6 -5137.2,129.1 -5137.2,6.8 -5056.8,52.6 			"/>
			<polygon class="st109" points="-5475.2,281.2 -5537,175.5 -5425.3,166 			"/>
			<polygon class="st206" points="-5056.8,52.6 -5056.8,-82 -5122.9,-65.9 -5137.2,6.8 			"/>
			<polygon class="st207" points="-5090.8,-217.2 -5056.8,-199.6 -5056.8,-82 -5122.9,-65.9 			"/>
			<polygon class="st208" points="-5127.3,-289.5 -5090.8,-217.2 -5205.4,-174.8 			"/>
			<polygon class="st209" points="-5068,-351.5 -5127.3,-289.5 -5056.8,-307.1 -5056.8,-351.5 			"/>
			<polygon class="st210" points="-5090.8,-217.2 -5056.8,-307.1 -5056.8,-199.6 			"/>
			<polygon class="st211" points="-5127.3,-289.5 -5056.8,-307.1 -5090.8,-217.2 			"/>
			<polygon class="st184" points="-5313.6,-284.2 -5205.4,-174.8 -5313.6,-174.8 			"/>
			<polygon class="st212" points="-5244.9,-104.3 -5205.4,-174.8 -5313.6,-174.8 			"/>
			<polygon class="st213" points="-5313.6,-284.2 -5200,-351.5 -5205.4,-174.8 			"/>
			<polygon class="st214" points="-5446,-303.7 -5313.6,-284.2 -5419,-205.7 			"/>
			<polygon class="st215" points="-5677.6,-326.3 -5559.4,-284.2 -5680.8,-202.6 			"/>
			<polygon class="st216" points="-5327.9,-351.5 -5313.6,-284.2 -5200,-351.5 			"/>
			<polygon class="st217" points="-5446,-303.7 -5427.9,-351.5 -5327.9,-351.5 -5313.6,-284.2 			"/>
			<polygon class="st218" points="-5559.4,-284.2 -5573.2,-351.5 -5520.7,-351.5 -5446,-303.7 			"/>
			<polygon class="st219" points="-5427.9,-351.5 -5446,-303.7 -5520.7,-351.5 			"/>
			<polygon class="st220" points="-5677.6,-326.3 -5624.2,-351.5 -5573.2,-351.5 -5559.4,-284.2 			"/>
			<polygon class="st221" points="-5773.6,-351.5 -5773.6,-331.1 -5677.6,-326.3 -5669.8,-351.5 			"/>
			<polygon class="st222" points="-5624.2,-351.5 -5669.8,-351.5 -5677.6,-326.3 			"/>
			<polygon class="st223" points="-5862.9,-317.7 -5813,-351.5 -5773.6,-351.5 -5773.6,-331.1 			"/>
			<polygon class="st224" points="-5976.9,-273.3 -5916.6,-351.5 -5813,-351.5 -5862.9,-317.7 			"/>
			<polygon class="st225" points="-6213.2,126.5 -6133.3,57.2 -6123.6,166 			"/>
			<polygon class="st226" points="-6641.9,17.4 -6601.5,50.9 -6674.8,176.5 			"/>
			<polygon class="st227" points="-6732.1,163.2 -6732.1,257.9 -6694.6,245.9 -6674.8,176.5 			"/>
			<polygon class="st228" points="-6732.1,39.1 -6732.1,163.2 -6674.8,176.5 -6641.9,17.4 			"/>
			<polygon class="st229" points="-6732.1,-43.6 -6732.1,39.1 -6641.9,17.4 			"/>
			<polygon class="st230" points="-6732.1,-71.5 -6732.1,-43.6 -6641.9,17.4 -6661.7,-90 			"/>
			<polygon class="st231" points="-6732.1,-142 -6732.1,-71.5 -6661.7,-90 			"/>
			<polygon class="st232" points="-6732.1,-202.6 -6701.2,-215.4 -6661.7,-90 -6732.1,-142 			"/>
			<polygon class="st233" points="-6595.5,-202.6 -6661.7,-90 -6701.2,-215.4 			"/>
			<polygon class="st234" points="-6732.1,-351.5 -6732.1,-323.9 -6686.6,-319.4 -6696.9,-351.5 			"/>
			<polygon class="st235" points="-6648.4,-351.5 -6686.6,-319.4 -6696.9,-351.5 			"/>
			<polygon class="st236" points="-6577.6,-351.5 -6601.5,-291.9 -6686.6,-319.4 -6648.4,-351.5 			"/>
			<polygon class="st46" points="-6395.3,-351.5 -6444.3,-262.7 -6440.2,-351.5 			"/>
			<polygon class="st237" points="-6577.6,-351.5 -6601.5,-291.9 -6444.3,-262.7 -6440.2,-351.5 			"/>
			<polygon class="st238" points="-6335.9,-351.5 -6328.3,-309.1 -6444.3,-262.7 -6395.3,-351.5 			"/>
			<polygon class="st239" points="-6270.8,-351.5 -6328.3,-309.1 -6335.9,-351.5 			"/>
			<polygon class="st240" points="-6247.3,-317.4 -6231.5,-351.5 -6270.8,-351.5 -6328.3,-309.1 			"/>
			<polygon class="st241" points="-6120.2,-351.5 -6152.2,-276.2 -6247.3,-317.4 -6152.2,-351.5 			"/>
			<polygon class="st241" points="-6231.5,-351.5 -6247.3,-317.4 -6152.2,-351.5 			"/>
			<polygon class="st242" points="-5976.9,-273.3 -6029.2,-351.5 -6120.2,-351.5 -6152.2,-276.2 			"/>
			<polygon class="st243" points="-5960.1,-351.5 -5976.9,-273.3 -5916.6,-351.5 			"/>
			<polygon class="st244" points="-6029.2,-351.5 -5960.1,-351.5 -5976.9,-273.3 			"/>
			<polygon class="st245" points="-5862.9,152.3 -5903,256.2 -5806.8,239.9 			"/>
			<polygon class="st246" points="-5995.8,145.4 -6029.3,267.4 -6114.4,229.6 			"/>
			<polygon class="st247" points="-5680.8,403.2 -5660.7,466.7 -5594.6,372.2 			"/>
			<polygon class="st19" points="-5983.2,466.2 -6018,590.8 -6029.3,590.8 -6092.1,477 			"/>
			<polygon class="st248" points="-6092.1,590.8 -6029.3,590.8 -6092.1,477 			"/>
			<polygon class="st249" points="-6361,245.9 -6340.4,360.2 -6444.3,403.2 			"/>
		</g>
	</g>
</g>
<path class="st5" d="M-5717.5-171.6L-5717.5-171.6L-5717.5-171.6z"/>
<path class="st7" d="M-5634.1-117.1L-5634.1-117.1L-5634.1-117.1z"/>
<path class="st9" d="M-5634.1-226.1L-5634.1-226.1L-5634.1-226.1z"/>
<linearGradient id="SVGID_4_" gradientUnits="userSpaceOnUse" x1="-4159.8999" y1="825.1474" x2="-3820.1001" y2="825.1474" gradientTransform="matrix(1 0 0 1 0 -480.8474)">
	<stop  offset="0" style="stop-color:#FFFFFF;stop-opacity:0"/>
	<stop  offset="1" style="stop-color:#FFFFFF"/>
</linearGradient>
<line class="st250" x1="-4151.9" y1="217.1" x2="-3828.1" y2="471.5"/>
<linearGradient id="SVGID_5_" gradientUnits="userSpaceOnUse" x1="-3800.8" y1="1354.6475" x2="-3800.8" y2="996.2474" gradientTransform="matrix(1 0 0 1 0 -480.8474)">
	<stop  offset="0" style="stop-color:#FFFFFF;stop-opacity:0"/>
	<stop  offset="1" style="stop-color:#FFFFFF"/>
</linearGradient>
<line class="st251" x1="-3800.8" y1="865.8" x2="-3800.8" y2="523.4"/>
<linearGradient id="SVGID_6_" gradientUnits="userSpaceOnUse" x1="-3440.3999" y1="824.4974" x2="-3779.2" y2="824.4974" gradientTransform="matrix(1 0 0 1 0 -480.8474)">
	<stop  offset="0" style="stop-color:#FFFFFF;stop-opacity:0"/>
	<stop  offset="1" style="stop-color:#FFFFFF"/>
</linearGradient>
<line class="st252" x1="-3771.2" y1="470.2" x2="-3448.4" y2="217.1"/>
<linearGradient id="SVGID_7_" gradientUnits="userSpaceOnUse" x1="-4135.2998" y1="712.6474" x2="-4135.2998" y2="712.6474" gradientTransform="matrix(1 0 0 1 0 -480.8474)">
	<stop  offset="0" style="stop-color:#FFFFFF;stop-opacity:0"/>
	<stop  offset="1" style="stop-color:#FFFFFF"/>
</linearGradient>
<path class="st253" d="M-4135.3,231.8"/>
<g class="st2">
	
		<linearGradient id="SVGID_8_" gradientUnits="userSpaceOnUse" x1="-4207.6572" y1="945.8008" x2="-4023.9109" y2="853.9278" gradientTransform="matrix(1 0 0 1 0 -480.8474)">
		<stop  offset="2.744709e-02" style="stop-color:#FFFFFF;stop-opacity:0"/>
		<stop  offset="1" style="stop-color:#FFFFFF"/>
	</linearGradient>
	<polygon class="st254" points="-3828.1,471.5 -4134,231.8 -3981,522.9 	"/>
	
		<linearGradient id="SVGID_9_" gradientUnits="userSpaceOnUse" x1="-4039.467" y1="1282.181" x2="-3855.7209" y2="1190.3077" gradientTransform="matrix(1 0 0 1 0 -480.8474)">
		<stop  offset="2.744709e-02" style="stop-color:#FFFFFF;stop-opacity:0"/>
		<stop  offset="1" style="stop-color:#FFFFFF"/>
	</linearGradient>
	<polygon class="st255" points="-3953.8,574.7 -3800.8,865.8 -3800.8,523.4 	"/>
	
		<linearGradient id="SVGID_10_" gradientUnits="userSpaceOnUse" x1="-4216.3271" y1="928.4609" x2="-4032.5808" y2="836.5878" gradientTransform="matrix(1 0 0 1 0 -480.8474)">
		<stop  offset="2.744709e-02" style="stop-color:#FFFFFF;stop-opacity:0"/>
		<stop  offset="1" style="stop-color:#FFFFFF"/>
	</linearGradient>
	<polygon class="st256" points="-4189.5,250.4 -4189.5,592.9 -4036.5,541.5 	"/>
	
		<linearGradient id="SVGID_11_" gradientUnits="userSpaceOnUse" x1="-4048.1272" y1="1264.861" x2="-3864.3809" y2="1172.9879" gradientTransform="matrix(1 0 0 1 0 -480.8474)">
		<stop  offset="2.744709e-02" style="stop-color:#FFFFFF;stop-opacity:0"/>
		<stop  offset="1" style="stop-color:#FFFFFF"/>
	</linearGradient>
	<polygon class="st257" points="-4162.2,644.8 -3856.4,884.4 -4009.3,593.3 	"/>
</g>
<g class="st2">
	
		<linearGradient id="SVGID_12_" gradientUnits="userSpaceOnUse" x1="-3616.7925" y1="1232.7209" x2="-3775.127" y2="1152.5764" gradientTransform="matrix(1 0 0 1 0 -480.8474)">
		<stop  offset="2.744709e-02" style="stop-color:#FFFFFF;stop-opacity:0"/>
		<stop  offset="1" style="stop-color:#FFFFFF"/>
	</linearGradient>
	<polygon class="st258" points="-3744.6,884.4 -3438.7,644.8 -3591.7,593.3 	"/>
	
		<linearGradient id="SVGID_13_" gradientUnits="userSpaceOnUse" x1="-3625.8445" y1="1250.604" x2="-3784.179" y2="1170.4592" gradientTransform="matrix(1 0 0 1 0 -480.8474)">
		<stop  offset="2.744709e-02" style="stop-color:#FFFFFF;stop-opacity:0"/>
		<stop  offset="1" style="stop-color:#FFFFFF"/>
	</linearGradient>
	<polygon class="st259" points="-3800.1,523.4 -3800.1,865.8 -3647.2,574.7 	"/>
	
		<linearGradient id="SVGID_14_" gradientUnits="userSpaceOnUse" x1="-3456.1719" y1="915.3975" x2="-3614.5066" y2="835.2527" gradientTransform="matrix(1 0 0 1 0 -480.8474)">
		<stop  offset="2.744709e-02" style="stop-color:#FFFFFF;stop-opacity:0"/>
		<stop  offset="1" style="stop-color:#FFFFFF"/>
	</linearGradient>
	<polygon class="st260" points="-3467,231.8 -3772.9,471.5 -3619.9,522.9 	"/>
	
		<linearGradient id="SVGID_15_" gradientUnits="userSpaceOnUse" x1="-3447.0999" y1="897.4747" x2="-3605.4343" y2="817.33" gradientTransform="matrix(1 0 0 1 0 -480.8474)">
		<stop  offset="2.744709e-02" style="stop-color:#FFFFFF;stop-opacity:0"/>
		<stop  offset="1" style="stop-color:#FFFFFF"/>
	</linearGradient>
	<polygon class="st261" points="-3564.4,541.5 -3411.5,592.9 -3411.5,250.4 	"/>
</g>
<path class="st9" d="M-2338.4,247.8L-2338.4,247.8L-2338.4,247.8z"/>
<g>
	<g>
		<polygon class="st6" points="-2346,411.1 -2429.3,345.8 -2387.7,425.1 		"/>
		<polygon class="st6" points="-2380.3,439.2 -2338.6,518.5 -2338.6,425.2 		"/>
		<polygon class="st6" points="-2444.5,350.9 -2444.5,444.2 -2402.8,430.2 		"/>
		<polygon class="st6" points="-2437,458.3 -2353.8,523.5 -2395.4,444.3 		"/>
	</g>
	<g class="st2">
		
			<linearGradient id="SVGID_16_" gradientUnits="userSpaceOnUse" x1="-2449.3877" y1="890.1661" x2="-2399.3557" y2="865.1503" gradientTransform="matrix(1 0 0 1 0 -480.8474)">
			<stop  offset="2.744709e-02" style="stop-color:#FFFFFF;stop-opacity:0"/>
			<stop  offset="1" style="stop-color:#FFFFFF"/>
		</linearGradient>
		<polygon class="st262" points="-2346,411.1 -2429.3,345.8 -2387.7,425.1 		"/>
		
			<linearGradient id="SVGID_17_" gradientUnits="userSpaceOnUse" x1="-2403.5874" y1="981.7662" x2="-2353.5557" y2="956.7502" gradientTransform="matrix(1 0 0 1 0 -480.8474)">
			<stop  offset="2.744709e-02" style="stop-color:#FFFFFF;stop-opacity:0"/>
			<stop  offset="1" style="stop-color:#FFFFFF"/>
		</linearGradient>
		<polygon class="st263" points="-2380.3,439.2 -2338.6,518.5 -2338.6,425.2 		"/>
		
			<linearGradient id="SVGID_18_" gradientUnits="userSpaceOnUse" x1="-2451.7476" y1="885.4462" x2="-2401.7158" y2="860.4303" gradientTransform="matrix(1 0 0 1 0 -480.8474)">
			<stop  offset="2.744709e-02" style="stop-color:#FFFFFF;stop-opacity:0"/>
			<stop  offset="1" style="stop-color:#FFFFFF"/>
		</linearGradient>
		<polygon class="st264" points="-2444.5,350.9 -2444.5,444.2 -2402.8,430.2 		"/>
		
			<linearGradient id="SVGID_19_" gradientUnits="userSpaceOnUse" x1="-2405.9575" y1="977.0262" x2="-2355.9258" y2="952.0104" gradientTransform="matrix(1 0 0 1 0 -480.8474)">
			<stop  offset="2.744709e-02" style="stop-color:#FFFFFF;stop-opacity:0"/>
			<stop  offset="1" style="stop-color:#FFFFFF"/>
		</linearGradient>
		<polygon class="st265" points="-2437,458.3 -2353.8,523.5 -2395.4,444.3 		"/>
	</g>
	<g>
		<polygon class="st10" points="-2330.6,410.7 -2242.7,341.8 -2330.6,341.8 		"/>
		<polygon class="st10" points="-2330.6,257.2 -2330.6,326.1 -2242.7,326.1 		"/>
		<polygon class="st10" points="-2346.3,326.1 -2346.3,257.2 -2434.2,326.1 		"/>
		<polygon class="st10" points="-2346.3,410.7 -2346.3,341.8 -2434.2,341.8 		"/>
	</g>
	<g>
		<polygon class="st8" points="-2323.3,523.5 -2240,458.3 -2281.7,444.3 		"/>
		<polygon class="st8" points="-2338.4,425.2 -2338.4,518.5 -2296.8,439.2 		"/>
		<polygon class="st8" points="-2247.7,345.8 -2331,411.1 -2289.4,425.1 		"/>
		<polygon class="st8" points="-2274.2,430.2 -2232.6,444.2 -2232.6,350.9 		"/>
	</g>
	<g class="st2">
		
			<linearGradient id="SVGID_20_" gradientUnits="userSpaceOnUse" x1="-2288.4956" y1="968.2823" x2="-2331.6082" y2="946.4599" gradientTransform="matrix(1 0 0 1 0 -480.8474)">
			<stop  offset="2.744709e-02" style="stop-color:#FFFFFF;stop-opacity:0"/>
			<stop  offset="1" style="stop-color:#FFFFFF"/>
		</linearGradient>
		<polygon class="st266" points="-2323.3,523.5 -2240,458.3 -2281.7,444.3 		"/>
		
			<linearGradient id="SVGID_21_" gradientUnits="userSpaceOnUse" x1="-2290.9727" y1="973.1755" x2="-2334.085" y2="951.3531" gradientTransform="matrix(1 0 0 1 0 -480.8474)">
			<stop  offset="2.744709e-02" style="stop-color:#FFFFFF;stop-opacity:0"/>
			<stop  offset="1" style="stop-color:#FFFFFF"/>
		</linearGradient>
		<polygon class="st267" points="-2338.4,425.2 -2338.4,518.5 -2296.8,439.2 		"/>
		
			<linearGradient id="SVGID_22_" gradientUnits="userSpaceOnUse" x1="-2244.7561" y1="881.8697" x2="-2287.8684" y2="860.0473" gradientTransform="matrix(1 0 0 1 0 -480.8474)">
			<stop  offset="2.744709e-02" style="stop-color:#FFFFFF;stop-opacity:0"/>
			<stop  offset="1" style="stop-color:#FFFFFF"/>
		</linearGradient>
		<polygon class="st268" points="-2247.7,345.8 -2331,411.1 -2289.4,425.1 		"/>
		
			<linearGradient id="SVGID_23_" gradientUnits="userSpaceOnUse" x1="-2242.2993" y1="877.0162" x2="-2285.4119" y2="855.1939" gradientTransform="matrix(1 0 0 1 0 -480.8474)">
			<stop  offset="2.744709e-02" style="stop-color:#FFFFFF;stop-opacity:0"/>
			<stop  offset="1" style="stop-color:#FFFFFF"/>
		</linearGradient>
		<polygon class="st269" points="-2274.2,430.2 -2232.6,444.2 -2232.6,350.9 		"/>
	</g>
	
		<linearGradient id="SVGID_24_" gradientUnits="userSpaceOnUse" x1="-2438.2" y1="857.2974" x2="-2342" y2="857.2974" gradientTransform="matrix(1 0 0 1 0 -480.8474)">
		<stop  offset="0" style="stop-color:#FFFFFF;stop-opacity:0"/>
		<stop  offset="1" style="stop-color:#FFFFFF"/>
	</linearGradient>
	<line class="st270" x1="-2434.2" y1="341.8" x2="-2346" y2="411.1"/>
	
		<linearGradient id="SVGID_25_" gradientUnits="userSpaceOnUse" x1="-2338.6001" y1="1003.3474" x2="-2338.6001" y2="902.0474" gradientTransform="matrix(1 0 0 1 0 -480.8474)">
		<stop  offset="0" style="stop-color:#FFFFFF;stop-opacity:0"/>
		<stop  offset="1" style="stop-color:#FFFFFF"/>
	</linearGradient>
	<line class="st271" x1="-2338.6" y1="518.5" x2="-2338.6" y2="425.2"/>
	
		<linearGradient id="SVGID_26_" gradientUnits="userSpaceOnUse" x1="-2238.7" y1="857.0974" x2="-2334.6001" y2="857.0974" gradientTransform="matrix(1 0 0 1 0 -480.8474)">
		<stop  offset="0" style="stop-color:#FFFFFF;stop-opacity:0"/>
		<stop  offset="1" style="stop-color:#FFFFFF"/>
	</linearGradient>
	<line class="st272" x1="-2330.6" y1="410.7" x2="-2242.7" y2="341.8"/>
	
		<linearGradient id="SVGID_27_" gradientUnits="userSpaceOnUse" x1="-2429.7" y1="826.6474" x2="-2429.7" y2="826.6474" gradientTransform="matrix(1 0 0 1 0 -480.8474)">
		<stop  offset="0" style="stop-color:#FFFFFF;stop-opacity:0"/>
		<stop  offset="1" style="stop-color:#FFFFFF"/>
	</linearGradient>
	<path class="st273" d="M-2429.7,345.8"/>
</g>
<path class="st9" d="M-1138.4,252.5L-1138.4,252.5L-1138.4,252.5z"/>
<linearGradient id="SVGID_28_" gradientUnits="userSpaceOnUse" x1="-1229.7" y1="831.4474" x2="-1229.7" y2="831.4474" gradientTransform="matrix(1 0 0 1 0 -480.8474)">
	<stop  offset="0" style="stop-color:#FFFFFF;stop-opacity:0"/>
	<stop  offset="1" style="stop-color:#FFFFFF"/>
</linearGradient>
<path class="st274" d="M-1229.7,350.6"/>
<g>
	<g class="st2">
		<polygon class="st275" points="389.5,428 306.2,362.8 347.8,442 		"/>
		<polygon class="st275" points="355.2,456.1 396.9,535.3 396.9,442.1 		"/>
		<polygon class="st275" points="291,367.8 291,461.1 332.8,447.1 		"/>
		<polygon class="st275" points="298.5,475.2 381.8,540.3 340.1,461.2 		"/>
	</g>
	<g>
		<polygon class="st275" points="407.9,422.7 495.8,353.6 407.9,353.6 		"/>
		<polygon class="st275" points="407.9,269.1 407.9,338 495.8,338 		"/>
		<polygon class="st275" points="392.2,338 392.2,269.1 304.3,338 		"/>
		<polygon class="st275" points="392.2,422.7 392.2,353.6 304.3,353.6 		"/>
	</g>
	<g class="st4">
		<polygon class="st275" points="418.2,540.3 501.5,475.2 459.8,461.2 		"/>
		<polygon class="st275" points="403.1,442.1 403.1,535.3 444.8,456.1 		"/>
		<polygon class="st275" points="493.8,362.8 410.5,428 452.1,442 		"/>
		<polygon class="st275" points="467.3,447.1 509,461.1 509,367.8 		"/>
	</g>
	<path class="st275" d="M400.1,259.6L400.1,259.6L400.1,259.6z"/>
	<path class="st275" d="M308.8,357.8"/>
</g>
<g class="st2">
	<polygon class="st3" points="-519.2,415.8 -602.5,350.6 -560.9,429.8 	"/>
	<polygon class="st3" points="-553.5,443.9 -511.8,523.2 -511.8,429.9 	"/>
	<polygon class="st3" points="-617.6,355.6 -617.6,448.9 -576,434.9 	"/>
	<polygon class="st3" points="-610.2,463 -526.9,528.2 -568.6,449 	"/>
</g>
<g>
	<polygon class="st3" points="-503.7,415.5 -415.8,346.5 -503.7,346.5 	"/>
	<polygon class="st3" points="-503.7,261.9 -503.7,330.8 -415.8,330.8 	"/>
	<polygon class="st3" points="-519.5,330.8 -519.5,261.9 -607.4,330.8 	"/>
	<polygon class="st3" points="-519.5,415.5 -519.5,346.5 -607.4,346.5 	"/>
</g>
<g class="st4">
	<polygon class="st3" points="-496.5,528.2 -413.2,463 -454.9,449 	"/>
	<polygon class="st3" points="-511.6,429.9 -511.6,523.2 -470,443.9 	"/>
	<polygon class="st3" points="-420.9,350.6 -504.2,415.8 -462.5,429.8 	"/>
	<polygon class="st3" points="-447.4,434.9 -405.8,448.9 -405.8,355.6 	"/>
</g>
<path class="st9" d="M-511.6,252.5L-511.6,252.5L-511.6,252.5z"/>
<linearGradient id="SVGID_29_" gradientUnits="userSpaceOnUse" x1="-602.9" y1="831.4474" x2="-602.9" y2="831.4474" gradientTransform="matrix(1 0 0 1 0 -480.8474)">
	<stop  offset="0" style="stop-color:#FFFFFF;stop-opacity:0"/>
	<stop  offset="1" style="stop-color:#FFFFFF"/>
</linearGradient>
<path class="st276" d="M-602.9,350.6"/>
</svg>
