<?xml version="1.0" encoding="utf-8"?>
<!-- Generator: Adobe Illustrator 24.1.0, SVG Export Plug-In . SVG Version: 6.00 Build 0)  -->
<svg version="1.1" xmlns="http://www.w3.org/2000/svg" xmlns:xlink="http://www.w3.org/1999/xlink" x="0px" y="0px"
	 viewBox="0 0 556.7 608.2" style="enable-background:new 0 0 556.7 608.2;" xml:space="preserve">
<style type="text/css">
	.st0{clip-path:url(#SVGID_4_);}
	.st1{fill:url(#SVGID_5_);}
	.st2{fill:#6BA5CD;}
	.st3{fill:#6D99B8;}
	.st4{fill:#76A6C8;}
	.st5{fill:#7FB0D4;}
	.st6{fill:#528EB7;}
	.st7{fill:#4B88B4;}
	.st8{fill:#3673A1;}
	.st9{fill:#266FA0;}
	.st10{fill:#5181AA;}
	.st11{fill:#136D9F;}
	.st12{fill:#3E88B6;}
	.st13{fill:#569DC9;}
	.st14{fill:#4296C6;}
	.st15{fill:#4897C6;}
	.st16{fill:#2C88B9;}
	.st17{fill:#1676A8;}
	.st18{fill:#126C9F;}
	.st19{fill:#11679B;}
	.st20{fill:#2284B5;}
	.st21{fill:#4396C6;}
	.st22{fill:#1976A8;}
	.st23{fill:#0F5F92;}
	.st24{fill:#005485;}
	.st25{fill:#1C699A;}
	.st26{fill:#4286B3;}
	.st27{fill:#497AA5;}
	.st28{fill:#5689B0;}
	.st29{fill:#629BC3;}
	.st30{fill:#67A2CC;}
	.st31{fill:#84B0D5;}
	.st32{fill:#7EAED3;}
	.st33{fill:#6A9CC1;}
	.st34{fill:#7791B0;}
	.st35{fill:#D9E0EE;}
	.st36{fill:#E8E9F2;}
	.st37{fill:#E0E3F0;}
	.st38{fill:#D4DAEB;}
	.st39{fill:#CBD3E7;}
	.st40{fill:#C6D1E5;}
	.st41{fill:#B9CAE2;}
	.st42{fill:#B5C6E0;}
	.st43{fill:#BDCAE3;}
	.st44{fill:#AFC7E0;}
	.st45{fill:#B9CBE1;}
	.st46{fill:#A7BEDD;}
	.st47{fill:#A8C1DD;}
	.st48{fill:#8EB5D8;}
	.st49{fill:#9BBBDA;}
	.st50{fill:#A0BEDB;}
	.st51{fill:#ABC4DE;}
	.st52{fill:#B5CAE1;}
	.st53{fill:#BDCDE4;}
	.st54{fill:#98B9D9;}
	.st55{fill:#9CBCDB;}
	.st56{fill:#A7C2DE;}
	.st57{fill:#79AAD0;}
	.st58{fill:#5099C6;}
	.st59{fill:#4E9BC8;}
	.st60{fill:#6AA2C9;}
	.st61{fill:#6DA6CE;}
	.st62{fill:#75A8D0;}
	.st63{fill:#A2C0DC;}
	.st64{fill:#93BCDB;}
	.st65{fill:#8CB7D9;}
	.st66{fill:#9EBCDC;}
	.st67{fill:#90B4D6;}
	.st68{fill:#A3BEDC;}
	.st69{fill:#9AB9DA;}
	.st70{fill:#91B5D7;}
	.st71{fill:#79AAD1;}
	.st72{fill:#63A1CB;}
	.st73{fill:#5E9FCA;}
	.st74{fill:#89B6D8;}
	.st75{fill:#60A1CC;}
	.st76{fill:#3189BB;}
	.st77{fill:#3B92C3;}
	.st78{fill:#1A79AB;}
	.st79{fill:#2184B6;}
	.st80{fill:#136698;}
	.st81{fill:#297DAC;}
	.st82{fill:#458AB7;}
	.st83{fill:#4D94C1;}
	.st84{fill:#3A8AB9;}
	.st85{fill:#589ECA;}
	.st86{fill:#62A1CC;}
	.st87{fill:#1D7CAE;}
	.st88{fill:#3385B5;}
	.st89{fill:#8FB3D8;}
	.st90{fill:#76A9CF;}
	.st91{fill:#84B0D4;}
	.st92{fill:#347FAE;}
	.st93{fill:#2288BC;}
	.st94{fill:#4A8AB4;}
	.st95{fill:#1B70A2;}
	.st96{fill:#4C98C7;}
	.st97{fill:#2979A9;}
	.st98{fill:#1A72A5;}
	.st99{fill:#1C7BAD;}
	.st100{fill:#2083B6;}
	.st101{fill:#5496C1;}
	.st102{fill:#68A3CC;}
	.st103{fill:#5091BD;}
	.st104{fill:#5C8FB5;}
	.st105{fill:#4480AA;}
	.st106{fill:#286E9E;}
	.st107{fill:#1873A4;}
	.st108{fill:#14699D;}
	.st109{fill:#277FB0;}
	.st110{fill:#4395C4;}
	.st111{fill:#2F8FC0;}
	.st112{fill:#3691C1;}
	.st113{fill:#347DAA;}
	.st114{fill:#4482AE;}
	.st115{fill:#6F86A7;}
	.st116{fill:#577EA6;}
	.st117{fill:#5795BF;}
	.st118{fill:#73A5C8;}
	.st119{fill:#6793B5;}
	.st120{fill:#5580A8;}
	.st121{fill:#2E83B4;}
	.st122{fill:#4D90BD;}
	.st123{fill:#548AB4;}
	.st124{fill:#7AABD0;}
	.st125{fill:#88B9D8;}
	.st126{fill:#6894B6;}
	.st127{fill:#6183A9;}
	.st128{fill:#3980AD;}
	.st129{fill:#236A9B;}
	.st130{fill:#136598;}
	.st131{fill:#074C7D;}
	.st132{fill:#176496;}
	.st133{fill:#588FB8;}
	.st134{fill:#80B2D6;}
	.st135{fill:#4891BE;}
	.st136{fill:#388BBB;}
	.st137{fill:#055687;}
	.st138{fill:#5C7EA5;}
	.st139{fill:#6F9FC1;}
	.st140{fill:#6D9DC2;}
	.st141{fill:#6C8BAD;}
	.st142{fill:#2774A4;}
	.st143{fill:#94BBDA;}
	.st144{fill:#5597C2;}
	.st145{fill:#6C9FC4;}
	.st146{fill:#75A5C3;}
	.st147{fill:#76AAD0;}
	.st148{fill:#8BB9D8;}
	.st149{fill:#82B7D9;}
	.st150{fill:#5C94BB;}
	.st151{fill:#4B84AF;}
	.st152{fill:#4275A1;}
	.st153{fill:#629CC4;}
	.st154{fill:#497DA8;}
	.st155{fill:#2077A9;}
	.st156{fill:none;stroke:#231F20;stroke-linecap:round;stroke-linejoin:round;stroke-miterlimit:10;}
	.st157{fill:#055B8F;}
	.st158{fill:#174172;}
	.st159{fill:#174374;}
	.st160{fill:#044D7E;}
	.st161{fill:#03578A;}
	.st162{fill:#0B598C;}
	.st163{fill:#105E90;}
	.st164{fill:#1E6294;}
	.st165{fill:#166597;}
	.st166{fill:#43739F;}
	.st167{fill:#2F6D9A;}
	.st168{fill:#2174A4;}
	.st169{fill:#337CA9;}
	.st170{fill:#2A83B4;}
	.st171{fill:#5C90B8;}
	.st172{fill:#486B96;}
	.st173{fill:#6280A3;}
	.st174{fill:#608CB2;}
	.st175{fill:#658EB0;}
	.st176{fill:#6D9EBF;}
	.st177{fill:#738FAF;}
	.st178{fill:#7FABC8;}
	.st179{fill:#7C98B4;}
	.st180{fill:#779EBB;}
	.st181{fill:#7CA4C0;}
	.st182{fill:#183E6C;}
	.st183{fill:#1A3E6E;}
	.st184{fill:#1B3663;}
	.st185{fill:#1A3B69;}
	.st186{fill:#015182;}
	.st187{fill:#164373;}
	.st188{fill:#1C3361;}
	.st189{fill:#146093;}
	.st190{fill:#09578B;}
	.st191{fill:#206293;}
	.st192{fill:#004F81;}
	.st193{fill:#165D8F;}
	.st194{fill:#035385;}
	.st195{fill:#34719F;}
	.st196{fill:#306C99;}
	.st197{fill:#3E6F9C;}
	.st198{fill:#59789F;}
	.st199{fill:#6884A9;}
	.st200{fill:#7689A9;}
	.st201{fill:#6980A3;}
	.st202{fill:#6E85A8;}
	.st203{fill:#5B86AD;}
	.st204{fill:#6C8FB0;}
	.st205{fill:#6D9BBB;}
	.st206{fill:#7DAECE;}
	.st207{fill:#7A9DB9;}
	.st208{fill:#77A2BF;}
	.st209{fill:#7BA8C6;}
	.st210{fill:#81AAC6;}
	.st211{fill:#83B2D0;}
	.st212{fill:#8EBDDA;}
	.st213{fill:#89B9D6;}
	.st214{fill:#95C0DC;}
	.st215{fill:#9CC2DD;}
	.st216{fill:#6BA6CF;}
	.st217{fill:#9FC1DD;}
	.st218{fill:#92BFDB;}
	.st219{fill:#A5C6E0;}
	.st220{fill:#B6CDE4;}
	.st221{fill:#BCCFE5;}
	.st222{fill:#CED8EA;}
	.st223{fill:#D6DCEC;}
	.st224{fill:#D2D8EA;}
	.st225{fill:#F2F0F7;}
	.st226{fill:#F2EFF7;}
	.st227{fill:#E8E9F3;}
	.st228{fill:#DEE2F1;}
	.st229{fill:#D1D9EA;}
	.st230{fill:#D0D8EB;}
	.st231{fill:#C8D5E9;}
	.st232{fill:#BFD1E6;}
	.st233{fill:#AEC9E1;}
	.st234{fill:#A6C7E0;}
	.st235{fill:#AFCCE3;}
	.st236{fill:#3690C1;}
	.st237{fill:#4999C7;}
	.st238{fill:#136DA0;}
	.st239{fill:#396E9B;}
	.st240{fill:#6699BE;}
	.st241{display:none;}
	.st242{display:inline;}
	.st243{fill:#FFFFFF;}
	.st244{display:inline;opacity:0.3;}
	.st245{fill:url(#SVGID_8_);}
	.st246{display:inline;opacity:0.1;}
	.st247{fill:url(#SVGID_9_);}
	.st248{opacity:0.3;}
	.st249{fill:url(#SVGID_10_);}
	.st250{opacity:0.7;}
	.st251{clip-path:url(#SVGID_12_);fill:url(#SVGID_13_);}
	.st252{display:inline;fill:#FAA31F;}
	.st253{display:inline;fill:#F36C4A;}
	.st254{display:inline;opacity:0.6;}
	.st255{display:inline;fill:#A31D2F;}
	.st256{opacity:0.8;}
</style>
<g id="Layer_2">
	<g>
		
			<image style="overflow:visible;opacity:0.75;" width="568" height="465" xlink:href="2B97C2E0A78C3107.png"  transform="matrix(1 0 0 1 1.4096 64.2856)">
		</image>
		<g>
			<g>
				<defs>
					<path id="SVGID_1_" d="M278.4,72.6C130.1,72.6,10,192.8,10,341c0,62.4,21.3,119.8,57,165.3c3.5-30.6,22.8-110,126.4-128.7
						c1.8,26.9,39.2,48.5,85,48.5s83.2-21.5,85-48.5c103.6,18.7,122.8,98,126.4,128.7c35.7-45.6,57-103,57-165.3
						C546.7,192.8,426.6,72.6,278.4,72.6z M278.4,391.5c-57.7,0-106.8-67.8-106.8-167.4s106.8-101,106.8-101s106.8,1.4,106.8,101
						S336,391.5,278.4,391.5z"/>
				</defs>
				<clipPath id="SVGID_2_">
					<use xlink:href="#SVGID_1_"  style="overflow:visible;"/>
				</clipPath>
			</g>
			<g>
				<defs>
					<path id="SVGID_3_" d="M278.4,72.6C130.1,72.6,10,192.8,10,341c0,62.4,21.3,119.8,57,165.3c3.5-30.6,22.8-110,126.4-128.7
						c1.8,26.9,39.2,48.5,85,48.5s83.2-21.5,85-48.5c103.6,18.7,122.8,98,126.4,128.7c35.7-45.6,57-103,57-165.3
						C546.7,192.8,426.6,72.6,278.4,72.6z M278.4,391.5c-57.7,0-106.8-67.8-106.8-167.4s106.8-101,106.8-101s106.8,1.4,106.8,101
						S336,391.5,278.4,391.5z"/>
				</defs>
				<clipPath id="SVGID_4_">
					<use xlink:href="#SVGID_3_"  style="overflow:visible;"/>
				</clipPath>
				<g class="st0">
					<linearGradient id="SVGID_5_" gradientUnits="userSpaceOnUse" x1="-451.8356" y1="-259.36" x2="856.954" y2="1049.4296">
						<stop  offset="0" style="stop-color:#D9E0EE"/>
						<stop  offset="0.1878" style="stop-color:#BDCAE3"/>
						<stop  offset="0.4933" style="stop-color:#84B0D5"/>
						<stop  offset="0.6969" style="stop-color:#1676A8"/>
						<stop  offset="1" style="stop-color:#174172"/>
					</linearGradient>
					<rect x="-635.1" y="-76.1" class="st1" width="1675.3" height="942.3"/>
					<polygon class="st2" points="-264,418.3 -264,521.3 -136.8,531.6 					"/>
					<polygon class="st3" points="-577.8,674.3 -597.6,749 -460.3,769.6 -467.6,665.7 					"/>
					<polygon class="st4" points="-394.7,542.8 -467.6,665.7 -504.5,503.7 					"/>
					<polygon class="st5" points="-504.5,503.7 -442.1,451.9 -347.3,404.1 -394.7,542.8 					"/>
					<polygon class="st6" points="-108.5,617.6 -136.8,728.4 -243.4,635.6 					"/>
					<polygon class="st7" points="-136.8,728.4 -108.5,617.6 -26.6,657.1 					"/>
					<polygon class="st8" points="113.8,741.6 108.9,665.7 187.1,752.4 					"/>
					<polygon class="st9" points="187.1,752.4 202.6,866.2 113.8,741.6 					"/>
					<polygon class="st10" points="-136.8,728.4 -154,843.5 -258,735.3 					"/>
					<polygon class="st11" points="416.2,678.6 436.3,742.1 281,792 					"/>
					<polygon class="st12" points="67.7,542.8 108.9,665.7 -26.6,657.1 					"/>
					<polygon class="st13" points="-26.6,441.4 -17.4,505 101.2,420.8 					"/>
					<polygon class="st14" points="101.2,420.8 194,531.6 234.1,427.7 					"/>
					<polygon class="st15" points="226,332.6 290.2,427.7 234.1,427.7 					"/>
					<polygon class="st16" points="194,531.6 290.2,515.3 281,627 					"/>
					<polygon class="st17" points="416.2,678.6 502.4,647.6 426.8,556.6 					"/>
					<polygon class="st18" points="502.4,647.6 635.6,672.5 621.8,556.6 					"/>
					<polygon class="st19" points="502.4,647.6 436.3,742.1 537.6,735.3 					"/>
					<polygon class="st20" points="513.6,515.3 560,450.9 436.3,441.4 					"/>
					<polygon class="st21" points="344,292.8 290.2,427.7 431.1,332.6 					"/>
					<polygon class="st22" points="671.7,441.4 730.9,404.5 779.1,521.3 					"/>
					<polygon class="st23" points="779.1,521.3 779.1,657.1 845.2,647.6 					"/>
					<polygon class="st24" points="779.1,657.1 795.4,752.4 845.2,647.6 					"/>
					<polygon class="st25" points="877.9,427.7 884.7,530.8 959.8,404.5 					"/>
					<polygon class="st26" points="607.2,231.8 667.4,332.6 722.4,277 					"/>
					<polygon class="st27" points="852.1,171.1 884.7,282.2 974.1,209.5 					"/>
					<polygon class="st28" points="783.4,100.6 852.1,171.1 730.9,185.4 					"/>
					<polygon class="st29" points="545.4,165.6 498.7,125.3 413.9,221.5 					"/>
					<polygon class="st30" points="88.6,308.5 226,332.6 187.1,231.8 					"/>
					<polygon class="st31" points="-36.3,332.6 -108.5,292.8 -4.2,185.4 55.4,196.3 					"/>
					<polygon class="st32" points="202.6,95.5 281,171.1 315.4,89.7 					"/>
					<polygon class="st33" points="498.7,125.3 537.6,-8.8 678,69.7 					"/>
					<polygon class="st34" points="897,-76.1 1029,-76.1 969.7,-14.1 					"/>
					<polygon class="st35" points="-604.2,60 -498.5,72.8 -504.5,-16.5 					"/>
					<polygon class="st36" points="-635.1,-48.5 -635.1,72.8 -604.2,60 -589.6,-44 					"/>
					<polygon class="st37" points="-604.2,60 -589.6,-44 -504.5,-16.5 					"/>
					<polygon class="st38" points="-498.5,72.8 -504.5,-16.5 -347.3,12.7 -362.8,60 					"/>
					<polygon class="st39" points="-564.7,185.4 -504.5,190.6 -362.8,60 -498.5,72.8 					"/>
					<polygon class="st40" points="-231.3,-33.7 -347.3,12.7 -362.8,60 -221,99.5 					"/>
					<polygon class="st41" points="-116.2,72.8 -221,99.5 -231.3,-33.7 					"/>
					<polygon class="st42" points="-375.7,221.5 -243.4,190.6 -221,99.5 -362.8,60 					"/>
					<polygon class="st43" points="-504.5,190.6 -375.7,221.5 -362.8,60 					"/>
					<polygon class="st44" points="-544.9,292.8 -504.5,326.3 -375.7,221.5 -504.5,190.6 					"/>
					<polygon class="st45" points="-564.7,185.4 -544.9,292.8 -504.5,190.6 					"/>
					<polygon class="st46" points="-243.4,190.6 -154,231.8 -221,99.5 					"/>
					<polygon class="st47" points="-116.2,72.8 -154,231.8 -221,99.5 					"/>
					<polygon class="st48" points="-4.2,185.4 -154,231.8 -108.5,292.8 					"/>
					<polygon class="st49" points="-116.2,72.8 -4.2,185.4 -154,231.8 					"/>
					<polygon class="st50" points="-26.6,69.7 -4.2,185.4 -116.2,72.8 					"/>
					<polygon class="st51" points="-55.2,-0.8 -26.6,69.7 -116.2,72.8 					"/>
					<polygon class="st52" points="-150.3,-42 -55.2,-0.8 -116.2,72.8 					"/>
					<polygon class="st53" points="-231.3,-33.7 -150.3,-42 -116.2,72.8 					"/>
					<polygon class="st54" points="101.2,95.5 -26.6,69.7 -4.2,185.4 					"/>
					<polygon class="st55" points="120.1,2.1 101.2,95.5 -26.6,69.7 					"/>
					<polygon class="st56" points="-55.2,-0.8 120.1,2.1 -26.6,69.7 					"/>
					<polygon class="st57" points="202.6,95.5 187.1,231.8 281,171.1 					"/>
					<polygon class="st58" points="413.9,221.5 344,292.8 431.1,332.6 					"/>
					<polygon class="st59" points="226,332.6 234.1,427.7 101.2,420.8 					"/>
					<polygon class="st60" points="416.2,72.8 413.9,221.5 498.7,125.3 					"/>
					<polygon class="st61" points="315.4,89.7 281,171.1 413.9,221.5 416.2,72.8 					"/>
					<polygon class="st62" points="55.4,196.3 187.1,231.8 88.6,308.5 					"/>
					<polygon class="st63" points="-504.5,326.3 -357.4,326.3 -375.7,221.5 					"/>
					<polygon class="st64" points="-442.1,451.9 -357.4,326.3 -504.5,326.3 -577.8,451.9 					"/>
					<polygon class="st65" points="-347.3,404.1 -357.4,326.3 -442.1,451.9 					"/>
					<polygon class="st66" points="-226,284.7 -375.7,221.5 -357.4,326.3 					"/>
					<polygon class="st67" points="-264,418.3 -347.3,404.1 -357.4,326.3 -226,284.7 					"/>
					<polygon class="st31" points="-116.2,401.9 -108.5,292.8 -226,284.7 -264,418.3 					"/>
					<polygon class="st68" points="-226,284.7 -243.4,190.6 -375.7,221.5 					"/>
					<polygon class="st69" points="-154,231.8 -226,284.7 -243.4,190.6 					"/>
					<polygon class="st70" points="-108.5,292.8 -154,231.8 -226,284.7 					"/>
					<polygon class="st71" points="-116.2,401.9 -36.3,332.6 -108.5,292.8 					"/>
					<polygon class="st72" points="-26.6,441.4 101.2,420.8 -36.3,332.6 					"/>
					<polygon class="st73" points="187.1,231.8 226,332.6 344,292.8 					"/>
					<polygon class="st31" points="101.2,95.5 55.4,196.3 187.1,231.8 					"/>
					<polygon class="st74" points="234.1,-42.3 202.6,95.5 315.4,89.7 					"/>
					<polygon class="st75" points="281,171.1 344,292.8 413.9,221.5 					"/>
					<polygon class="st76" points="431.1,332.6 436.3,441.4 560,450.9 					"/>
					<polygon class="st77" points="290.2,427.7 290.2,515.3 234.1,427.7 					"/>
					<polygon class="st78" points="426.8,556.6 513.6,515.3 502.4,647.6 					"/>
					<polygon class="st79" points="290.2,515.3 281,627 426.8,556.6 					"/>
					<polygon class="st80" points="621.8,556.6 635.6,672.5 779.1,657.1 					"/>
					<polygon class="st81" points="671.7,441.4 667.4,332.6 730.9,404.5 					"/>
					<polygon class="st82" points="607.2,231.8 545.4,288.5 667.4,332.6 					"/>
					<polygon class="st83" points="413.9,221.5 545.4,288.5 431.1,332.6 					"/>
					<polygon class="st84" points="67.7,542.8 108.9,665.7 194,531.6 					"/>
					<polygon class="st85" points="-17.4,505 -136.8,531.6 -26.6,441.4 					"/>
					<polygon class="st86" points="-116.2,401.9 -136.8,531.6 -26.6,441.4 					"/>
					<polygon class="st87" points="560,450.9 513.6,515.3 621.8,556.6 					"/>
					<polygon class="st88" points="560,450.9 545.4,288.5 667.4,332.6 					"/>
					<polygon class="st89" points="-4.2,185.4 101.2,95.5 55.4,196.3 					"/>
					<polygon class="st61" points="-264,418.3 -136.8,531.6 -116.2,401.9 					"/>
					<polygon class="st73" points="88.6,308.5 101.2,420.8 226,332.6 					"/>
					<polygon class="st90" points="-36.3,332.6 88.6,308.5 55.4,196.3 					"/>
					<polygon class="st91" points="101.2,95.5 202.6,95.5 187.1,231.8 					"/>
					<polygon class="st92" points="667.4,332.6 722.4,277 730.9,404.5 					"/>
					<polygon class="st93" points="436.3,441.4 426.8,556.6 290.2,515.3 					"/>
					<polygon class="st94" points="607.2,231.8 730.9,185.4 722.4,277 					"/>
					<polygon class="st95" points="730.9,404.5 877.9,427.7 779.1,521.3 					"/>
					<polygon class="st96" points="226,332.6 290.2,427.7 344,292.8 					"/>
					<polygon class="st97" points="108.9,665.7 202.6,665.7 187.1,752.4 					"/>
					<polygon class="st98" points="281,627 416.2,678.6 281,792 					"/>
					<polygon class="st99" points="426.8,556.6 416.2,678.6 281,627 					"/>
					<polygon class="st100" points="436.3,441.4 513.6,515.3 426.8,556.6 					"/>
					<polygon class="st101" points="413.9,221.5 545.4,165.6 545.4,288.5 					"/>
					<polygon class="st102" points="281,171.1 344,292.8 187.1,231.8 					"/>
					<polygon class="st103" points="545.4,165.6 607.2,231.8 545.4,288.5 					"/>
					<polygon class="st104" points="678,69.7 730.9,185.4 783.4,100.6 					"/>
					<polygon class="st105" points="852.1,171.1 722.4,277 884.7,282.2 					"/>
					<polygon class="st106" points="877.9,427.7 959.8,404.5 884.7,282.2 					"/>
					<polygon class="st107" points="671.7,441.4 779.1,521.3 621.8,556.6 					"/>
					<polygon class="st108" points="877.9,427.7 884.7,530.8 779.1,521.3 					"/>
					<polygon class="st109" points="671.7,441.4 667.4,332.6 560,450.9 					"/>
					<polygon class="st17" points="502.4,647.6 621.8,556.6 513.6,515.3 					"/>
					<polygon class="st19" points="779.1,521.3 779.1,657.1 621.8,556.6 					"/>
					<polygon class="st110" points="67.7,542.8 101.2,420.8 194,531.6 					"/>
					<polygon class="st111" points="431.1,332.6 436.3,441.4 290.2,515.3 					"/>
					<polygon class="st112" points="290.2,427.7 290.2,515.3 431.1,332.6 					"/>
					<polygon class="st113" points="722.4,277 730.9,404.5 884.7,282.2 					"/>
					<polygon class="st102" points="-36.3,332.6 101.2,420.8 88.6,308.5 					"/>
					<polygon class="st24" points="639,762.8 779.1,657.1 795.4,752.4 					"/>
					<polygon class="st114" points="4.9,752.4 -26.6,657.1 -136.8,728.4 					"/>
					<polygon class="st115" points="-460.3,769.6 -577.8,866.2 -412.6,866.2 -375.7,779.9 					"/>
					<polygon class="st116" points="-154,843.5 -258,735.3 -278.6,843.5 					"/>
					<polygon class="st117" points="-108.5,617.6 -243.4,635.6 -136.8,531.6 					"/>
					<polygon class="st118" points="416.2,72.8 537.6,-8.8 498.7,125.3 					"/>
					<polygon class="st119" points="678,69.7 783.4,-8.8 783.4,100.6 					"/>
					<polygon class="st120" points="891.6,100.6 852.1,171.1 974.1,209.5 					"/>
					<polygon class="st121" points="202.6,665.7 194,531.6 108.9,665.7 					"/>
					<polygon class="st122" points="-108.5,617.6 -17.4,505 -26.6,657.1 					"/>
					<polygon class="st123" points="-136.8,728.4 -243.4,635.6 -258,735.3 					"/>
					<polygon class="st124" points="-264,418.3 -264,521.3 -394.7,542.8 					"/>
					<polygon class="st125" points="-442.1,451.9 -504.5,503.7 -597.6,521.3 -577.8,451.9 					"/>
					<polygon class="st126" points="-467.6,665.7 -347.3,678.6 -460.3,769.6 					"/>
					<polygon class="st127" points="-375.7,779.9 -258,735.3 -278.6,843.5 					"/>
					<polygon class="st128" points="-26.6,657.1 108.9,665.7 4.9,752.4 					"/>
					<polygon class="st129" points="187.1,752.4 281,792 202.6,866.2 					"/>
					<polygon class="st130" points="537.6,735.3 635.6,672.5 502.4,647.6 					"/>
					<polygon class="st131" points="795.4,752.4 845.2,647.6 938.6,691.4 877.9,792 					"/>
					<polygon class="st132" points="884.7,530.8 1006.2,515.3 959.8,404.5 					"/>
					<polygon class="st133" points="678,69.7 607.2,231.8 730.9,185.4 					"/>
					<polygon class="st134" points="416.2,72.8 323.4,-55.7 315.4,89.7 					"/>
					<polygon class="st135" points="67.7,542.8 -26.6,657.1 -17.4,505 					"/>
					<polygon class="st136" points="431.1,332.6 560,450.9 545.4,288.5 					"/>
					<polygon class="st137" points="845.2,647.6 884.7,530.8 938.6,691.4 					"/>
					<polygon class="st138" points="974.1,209.5 1006.2,58.2 891.6,100.6 					"/>
					<polygon class="st139" points="651,-28.3 678,69.7 537.6,-8.8 					"/>
					<polygon class="st140" points="498.7,125.3 678,69.7 545.4,165.6 					"/>
					<polygon class="st141" points="891.6,100.6 897,-76.1 969.7,-14.1 					"/>
					<polygon class="st142" points="884.7,282.2 877.9,427.7 730.9,404.5 					"/>
					<polygon class="st143" points="120.1,2.1 234.1,-42.3 202.6,95.5 101.2,95.5 					"/>
					<polygon class="st144" points="-136.8,531.6 -108.5,617.6 -17.4,505 					"/>
					<polygon class="st145" points="-264,521.3 -347.3,678.6 -394.7,542.8 					"/>
					<polygon class="st146" points="-504.5,503.7 -577.8,674.3 -467.6,665.7 					"/>
					<polygon class="st147" points="-347.3,404.1 -394.7,542.8 -264,418.3 					"/>
					<polygon class="st148" points="323.4,-55.7 234.1,-42.3 315.4,89.7 					"/>
					<polygon class="st149" points="416.2,72.8 419.4,-50.9 323.4,-55.7 					"/>
					<polygon class="st150" points="545.4,165.6 607.2,231.8 678,69.7 					"/>
					<polygon class="st151" points="730.9,185.4 722.4,277 852.1,171.1 					"/>
					<polygon class="st152" points="884.7,282.2 974.1,209.5 959.8,282.2 					"/>
					<polygon class="st153" points="-243.4,635.6 -264,521.3 -136.8,531.6 					"/>
					<polygon class="st154" points="-136.8,728.4 -154,843.5 4.9,752.4 					"/>
					<polygon class="st155" points="202.6,665.7 281,627 281,792 					"/>
					<path class="st156" d="M-604.2,60"/>
					<polygon class="st157" points="639,762.8 537.6,735.3 635.6,672.5 779.1,657.1 					"/>
					<polygon class="st158" points="877.9,792 983.8,796 938.6,691.4 					"/>
					<polygon class="st159" points="853.2,853.3 877.9,792 795.4,752.4 727.2,836.1 					"/>
					<polygon class="st160" points="639,762.8 658.3,836.1 727.2,836.1 795.4,752.4 					"/>
					<polygon class="st161" points="537.6,735.3 518.3,866.2 537.6,866.2 639,762.8 					"/>
					<polygon class="st162" points="358.6,866.2 497.6,866.2 436.3,742.1 					"/>
					<polygon class="st163" points="436.3,742.1 537.6,735.3 518.3,866.2 497.6,866.2 					"/>
					<polygon class="st164" points="202.6,866.2 358.6,866.2 281,792 					"/>
					<polygon class="st165" points="436.3,742.1 358.6,866.2 281,792 					"/>
					<polygon class="st166" points="-154,843.5 -81.7,866.2 4.9,866.2 4.9,752.4 					"/>
					<polygon class="st167" points="202.6,866.2 113.8,741.6 79,866.2 					"/>
					<polygon class="st168" points="202.6,665.7 187.1,752.4 281,792 					"/>
					<polygon class="st169" points="108.9,665.7 113.8,741.6 4.9,752.4 					"/>
					<polygon class="st170" points="194,531.6 202.6,665.7 281,627 					"/>
					<polygon class="st171" points="-243.4,635.6 -258,735.3 -347.3,678.6 					"/>
					<polygon class="st172" points="-81.7,866.2 -154,843.5 -278.6,843.5 -180.1,866.2 					"/>
					<polygon class="st173" points="-375.7,779.9 -412.6,866.2 -291.5,866.2 -278.6,843.5 					"/>
					<polygon class="st174" points="-347.3,678.6 -375.7,779.9 -258,735.3 					"/>
					<polygon class="st116" points="-291.5,866.2 -180.1,866.2 -278.6,843.5 					"/>
					<polygon class="st175" points="-347.3,678.6 -375.7,779.9 -460.3,769.6 					"/>
					<polygon class="st176" points="-394.7,542.8 -467.6,665.7 -347.3,678.6 					"/>
					<polygon class="st177" points="-577.8,866.2 -635.1,866.2 -635.1,786 -597.6,749 -460.3,769.6 					"/>
					<polygon class="st178" points="-635.1,533.3 -635.1,661.4 -577.8,674.3 -504.5,503.7 -597.6,521.3 					"/>
					<polygon class="st179" points="-635.1,786 -597.6,749 -635.1,741.6 					"/>
					<polygon class="st180" points="-577.8,674.3 -635.1,700 -635.1,741.6 -597.6,749 					"/>
					<polygon class="st181" points="-635.1,661.4 -635.1,700 -577.8,674.3 					"/>
					<polygon class="st182" points="877.9,792 853.2,853.3 983.8,796 					"/>
					<polygon class="st183" points="938.6,691.4 1040.2,747.3 1040.2,776.7 983.8,796 					"/>
					<polygon class="st184" points="853.2,853.3 853.2,866.2 1040.2,866.2 983.8,796 					"/>
					<polygon class="st185" points="727.2,836.1 717.2,866.2 853.2,866.2 853.2,853.3 					"/>
					<polygon class="st186" points="639,762.8 658.3,836.1 578.7,866.2 537.6,866.2 					"/>
					<polygon class="st187" points="717.2,866.2 727.2,836.1 658.3,836.1 578.7,866.2 					"/>
					<polygon class="st159" points="938.6,691.4 1040.2,634.3 1040.2,747.3 					"/>
					<polygon class="st188" points="983.8,796 1040.2,776.7 1040.2,866.2 					"/>
					<polygon class="st189" points="779.1,521.3 845.2,647.6 884.7,530.8 					"/>
					<polygon class="st190" points="884.7,530.8 938.6,691.4 1006.2,515.3 					"/>
					<polygon class="st191" points="1006.2,515.3 1040.2,467.6 1040.2,346 959.8,404.5 					"/>
					<polygon class="st192" points="938.6,691.4 1040.2,634.3 1040.2,563.2 1006.2,515.3 					"/>
					<polygon class="st193" points="1040.2,467.6 1040.2,521.3 1006.2,515.3 					"/>
					<polygon class="st194" points="1040.2,563.2 1040.2,521.3 1006.2,515.3 					"/>
					<polygon class="st195" points="884.7,282.2 959.8,404.5 959.8,282.2 					"/>
					<polygon class="st196" points="1040.2,346 959.8,404.5 959.8,282.2 1040.2,328 					"/>
					<polygon class="st99" points="621.8,556.6 560,450.9 671.7,441.4 					"/>
					<polygon class="st197" points="1040.2,328 1040.2,193.4 974.1,209.5 959.8,282.2 					"/>
					<polygon class="st198" points="1006.2,58.2 1040.2,75.8 1040.2,193.4 974.1,209.5 					"/>
					<polygon class="st199" points="969.7,-14.1 1006.2,58.2 891.6,100.6 					"/>
					<polygon class="st200" points="1029,-76.1 969.7,-14.1 1040.2,-31.7 1040.2,-76.1 					"/>
					<polygon class="st201" points="1006.2,58.2 1040.2,-31.7 1040.2,75.8 					"/>
					<polygon class="st202" points="969.7,-14.1 1040.2,-31.7 1006.2,58.2 					"/>
					<polygon class="st175" points="783.4,-8.8 891.6,100.6 783.4,100.6 					"/>
					<polygon class="st203" points="852.1,171.1 891.6,100.6 783.4,100.6 					"/>
					<polygon class="st204" points="783.4,-8.8 897,-76.1 891.6,100.6 					"/>
					<polygon class="st205" points="651,-28.3 783.4,-8.8 678,69.7 					"/>
					<polygon class="st206" points="419.4,-50.9 537.6,-8.8 416.2,72.8 					"/>
					<polygon class="st207" points="769.1,-76.1 783.4,-8.8 897,-76.1 					"/>
					<polygon class="st208" points="651,-28.3 669.1,-76.1 769.1,-76.1 783.4,-8.8 					"/>
					<polygon class="st209" points="537.6,-8.8 523.8,-76.1 576.3,-76.1 651,-28.3 					"/>
					<polygon class="st210" points="669.1,-76.1 651,-28.3 576.3,-76.1 					"/>
					<polygon class="st211" points="419.4,-50.9 472.8,-76.1 523.8,-76.1 537.6,-8.8 					"/>
					<polygon class="st212" points="323.4,-76.1 323.4,-55.7 419.4,-50.9 427.2,-76.1 					"/>
					<polygon class="st213" points="472.8,-76.1 427.2,-76.1 419.4,-50.9 					"/>
					<polygon class="st214" points="234.1,-42.3 284,-76.1 323.4,-76.1 323.4,-55.7 					"/>
					<polygon class="st215" points="120.1,2.1 180.4,-76.1 284,-76.1 234.1,-42.3 					"/>
					<polygon class="st216" points="-116.2,401.9 -36.3,332.6 -26.6,441.4 					"/>
					<polygon class="st217" points="-544.9,292.8 -504.5,326.3 -577.8,451.9 					"/>
					<polygon class="st218" points="-635.1,438.6 -635.1,533.3 -597.6,521.3 -577.8,451.9 					"/>
					<polygon class="st219" points="-635.1,314.5 -635.1,438.6 -577.8,451.9 -544.9,292.8 					"/>
					<polygon class="st220" points="-635.1,231.8 -635.1,314.5 -544.9,292.8 					"/>
					<polygon class="st221" points="-635.1,203.9 -635.1,231.8 -544.9,292.8 -564.7,185.4 					"/>
					<polygon class="st222" points="-635.1,133.4 -635.1,203.9 -564.7,185.4 					"/>
					<polygon class="st223" points="-635.1,72.8 -604.2,60 -564.7,185.4 -635.1,133.4 					"/>
					<polygon class="st224" points="-498.5,72.8 -564.7,185.4 -604.2,60 					"/>
					<polygon class="st225" points="-635.1,-76.1 -635.1,-48.5 -589.6,-44 -599.9,-76.1 					"/>
					<polygon class="st226" points="-551.4,-76.1 -589.6,-44 -599.9,-76.1 					"/>
					<polygon class="st227" points="-480.6,-76.1 -504.5,-16.5 -589.6,-44 -551.4,-76.1 					"/>
					<polygon class="st35" points="-298.3,-76.1 -347.3,12.7 -343.2,-76.1 					"/>
					<polygon class="st228" points="-480.6,-76.1 -504.5,-16.5 -347.3,12.7 -343.2,-76.1 					"/>
					<polygon class="st229" points="-238.9,-76.1 -231.3,-33.7 -347.3,12.7 -298.3,-76.1 					"/>
					<polygon class="st230" points="-173.8,-76.1 -231.3,-33.7 -238.9,-76.1 					"/>
					<polygon class="st231" points="-150.3,-42 -134.5,-76.1 -173.8,-76.1 -231.3,-33.7 					"/>
					<polygon class="st232" points="-23.2,-76.1 -55.2,-0.8 -150.3,-42 -55.2,-76.1 					"/>
					<polygon class="st232" points="-134.5,-76.1 -150.3,-42 -55.2,-76.1 					"/>
					<polygon class="st233" points="120.1,2.1 67.8,-76.1 -23.2,-76.1 -55.2,-0.8 					"/>
					<polygon class="st234" points="136.9,-76.1 120.1,2.1 180.4,-76.1 					"/>
					<polygon class="st235" points="67.8,-76.1 136.9,-76.1 120.1,2.1 					"/>
					<polygon class="st236" points="234.1,427.7 194,531.6 290.2,515.3 					"/>
					<polygon class="st237" points="101.2,420.8 67.7,542.8 -17.4,505 					"/>
					<polygon class="st238" points="416.2,678.6 436.3,742.1 502.4,647.6 					"/>
					<polygon class="st8" points="113.8,741.6 79,866.2 67.7,866.2 4.9,752.4 					"/>
					<polygon class="st239" points="4.9,866.2 67.7,866.2 4.9,752.4 					"/>
					<polygon class="st240" points="-264,521.3 -243.4,635.6 -347.3,678.6 					"/>
					<polygon class="st2" points="-264,418.3 -264,521.3 -136.8,531.6 					"/>
					<polygon class="st3" points="-577.8,674.3 -597.6,749 -460.3,769.6 -467.6,665.7 					"/>
					<polygon class="st4" points="-394.7,542.8 -467.6,665.7 -504.5,503.7 					"/>
					<polygon class="st5" points="-504.5,503.7 -442.1,451.9 -347.3,404.1 -394.7,542.8 					"/>
					<polygon class="st6" points="-108.5,617.6 -136.8,728.4 -243.4,635.6 					"/>
					<polygon class="st7" points="-136.8,728.4 -108.5,617.6 -26.6,657.1 					"/>
					<polygon class="st8" points="113.8,741.6 108.9,665.7 187.1,752.4 					"/>
					<polygon class="st9" points="187.1,752.4 202.6,866.2 113.8,741.6 					"/>
					<polygon class="st10" points="-136.8,728.4 -154,843.5 -258,735.3 					"/>
					<polygon class="st11" points="416.2,678.6 436.3,742.1 281,792 					"/>
					<polygon class="st12" points="67.7,542.8 108.9,665.7 -26.6,657.1 					"/>
					<polygon class="st13" points="-26.6,441.4 -17.4,505 101.2,420.8 					"/>
					<polygon class="st14" points="101.2,420.8 194,531.6 234.1,427.7 					"/>
					<polygon class="st15" points="226,332.6 290.2,427.7 234.1,427.7 					"/>
					<polygon class="st16" points="194,531.6 290.2,515.3 281,627 					"/>
					<polygon class="st17" points="416.2,678.6 502.4,647.6 426.8,556.6 					"/>
					<polygon class="st18" points="502.4,647.6 635.6,672.5 621.8,556.6 					"/>
					<polygon class="st19" points="502.4,647.6 436.3,742.1 537.6,735.3 					"/>
					<polygon class="st20" points="513.6,515.3 560,450.9 436.3,441.4 					"/>
					<polygon class="st21" points="344,292.8 290.2,427.7 431.1,332.6 					"/>
					<polygon class="st22" points="671.7,441.4 730.9,404.5 779.1,521.3 					"/>
					<polygon class="st23" points="779.1,521.3 779.1,657.1 845.2,647.6 					"/>
					<polygon class="st24" points="779.1,657.1 795.4,752.4 845.2,647.6 					"/>
					<polygon class="st25" points="877.9,427.7 884.7,530.8 959.8,404.5 					"/>
					<polygon class="st26" points="607.2,231.8 667.4,332.6 722.4,277 					"/>
					<polygon class="st27" points="852.1,171.1 884.7,282.2 974.1,209.5 					"/>
					<polygon class="st28" points="783.4,100.6 852.1,171.1 730.9,185.4 					"/>
					<polygon class="st29" points="545.4,165.6 498.7,125.3 413.9,221.5 					"/>
					<polygon class="st30" points="88.6,308.5 226,332.6 187.1,231.8 					"/>
					<polygon class="st31" points="-36.3,332.6 -108.5,292.8 -4.2,185.4 55.4,196.3 					"/>
					<polygon class="st32" points="202.6,95.5 281,171.1 315.4,89.7 					"/>
					<polygon class="st33" points="498.7,125.3 537.6,-8.8 678,69.7 					"/>
					<polygon class="st34" points="897,-76.1 1029,-76.1 969.7,-14.1 					"/>
					<polygon class="st35" points="-604.2,60 -498.5,72.8 -504.5,-16.5 					"/>
					<polygon class="st36" points="-635.1,-48.5 -635.1,72.8 -604.2,60 -589.6,-44 					"/>
					<polygon class="st37" points="-604.2,60 -589.6,-44 -504.5,-16.5 					"/>
					<polygon class="st38" points="-498.5,72.8 -504.5,-16.5 -347.3,12.7 -362.8,60 					"/>
					<polygon class="st39" points="-564.7,185.4 -504.5,190.6 -362.8,60 -498.5,72.8 					"/>
					<polygon class="st40" points="-231.3,-33.7 -347.3,12.7 -362.8,60 -221,99.5 					"/>
					<polygon class="st41" points="-116.2,72.8 -221,99.5 -231.3,-33.7 					"/>
					<polygon class="st42" points="-375.7,221.5 -243.4,190.6 -221,99.5 -362.8,60 					"/>
					<polygon class="st43" points="-504.5,190.6 -375.7,221.5 -362.8,60 					"/>
					<polygon class="st44" points="-544.9,292.8 -504.5,326.3 -375.7,221.5 -504.5,190.6 					"/>
					<polygon class="st45" points="-564.7,185.4 -544.9,292.8 -504.5,190.6 					"/>
					<polygon class="st46" points="-243.4,190.6 -154,231.8 -221,99.5 					"/>
					<polygon class="st47" points="-116.2,72.8 -154,231.8 -221,99.5 					"/>
					<polygon class="st48" points="-4.2,185.4 -154,231.8 -108.5,292.8 					"/>
					<polygon class="st49" points="-116.2,72.8 -4.2,185.4 -154,231.8 					"/>
					<polygon class="st50" points="-26.6,69.7 -4.2,185.4 -116.2,72.8 					"/>
					<polygon class="st51" points="-55.2,-0.8 -26.6,69.7 -116.2,72.8 					"/>
					<polygon class="st52" points="-150.3,-42 -55.2,-0.8 -116.2,72.8 					"/>
					<polygon class="st53" points="-231.3,-33.7 -150.3,-42 -116.2,72.8 					"/>
					<polygon class="st54" points="101.2,95.5 -26.6,69.7 -4.2,185.4 					"/>
					<polygon class="st55" points="120.1,2.1 101.2,95.5 -26.6,69.7 					"/>
					<polygon class="st56" points="-55.2,-0.8 120.1,2.1 -26.6,69.7 					"/>
					<polygon class="st57" points="202.6,95.5 187.1,231.8 281,171.1 					"/>
					<polygon class="st58" points="413.9,221.5 344,292.8 431.1,332.6 					"/>
					<polygon class="st59" points="226,332.6 234.1,427.7 101.2,420.8 					"/>
					<polygon class="st60" points="416.2,72.8 413.9,221.5 498.7,125.3 					"/>
					<polygon class="st61" points="315.4,89.7 281,171.1 413.9,221.5 416.2,72.8 					"/>
					<polygon class="st62" points="55.4,196.3 187.1,231.8 88.6,308.5 					"/>
					<polygon class="st63" points="-504.5,326.3 -357.4,326.3 -375.7,221.5 					"/>
					<polygon class="st64" points="-442.1,451.9 -357.4,326.3 -504.5,326.3 -577.8,451.9 					"/>
					<polygon class="st65" points="-347.3,404.1 -357.4,326.3 -442.1,451.9 					"/>
					<polygon class="st66" points="-226,284.7 -375.7,221.5 -357.4,326.3 					"/>
					<polygon class="st67" points="-264,418.3 -347.3,404.1 -357.4,326.3 -226,284.7 					"/>
					<polygon class="st31" points="-116.2,401.9 -108.5,292.8 -226,284.7 -264,418.3 					"/>
					<polygon class="st68" points="-226,284.7 -243.4,190.6 -375.7,221.5 					"/>
					<polygon class="st69" points="-154,231.8 -226,284.7 -243.4,190.6 					"/>
					<polygon class="st70" points="-108.5,292.8 -154,231.8 -226,284.7 					"/>
					<polygon class="st71" points="-116.2,401.9 -36.3,332.6 -108.5,292.8 					"/>
					<polygon class="st72" points="-26.6,441.4 101.2,420.8 -36.3,332.6 					"/>
					<polygon class="st73" points="187.1,231.8 226,332.6 344,292.8 					"/>
					<polygon class="st31" points="101.2,95.5 55.4,196.3 187.1,231.8 					"/>
					<polygon class="st74" points="234.1,-42.3 202.6,95.5 315.4,89.7 					"/>
					<polygon class="st75" points="281,171.1 344,292.8 413.9,221.5 					"/>
					<polygon class="st76" points="431.1,332.6 436.3,441.4 560,450.9 					"/>
					<polygon class="st77" points="290.2,427.7 290.2,515.3 234.1,427.7 					"/>
					<polygon class="st78" points="426.8,556.6 513.6,515.3 502.4,647.6 					"/>
					<polygon class="st79" points="290.2,515.3 281,627 426.8,556.6 					"/>
					<polygon class="st80" points="621.8,556.6 635.6,672.5 779.1,657.1 					"/>
					<polygon class="st81" points="671.7,441.4 667.4,332.6 730.9,404.5 					"/>
					<polygon class="st82" points="607.2,231.8 545.4,288.5 667.4,332.6 					"/>
					<polygon class="st83" points="413.9,221.5 545.4,288.5 431.1,332.6 					"/>
					<polygon class="st84" points="67.7,542.8 108.9,665.7 194,531.6 					"/>
					<polygon class="st85" points="-17.4,505 -136.8,531.6 -26.6,441.4 					"/>
					<polygon class="st86" points="-116.2,401.9 -136.8,531.6 -26.6,441.4 					"/>
					<polygon class="st87" points="560,450.9 513.6,515.3 621.8,556.6 					"/>
					<polygon class="st88" points="560,450.9 545.4,288.5 667.4,332.6 					"/>
					<polygon class="st89" points="-4.2,185.4 101.2,95.5 55.4,196.3 					"/>
					<polygon class="st61" points="-264,418.3 -136.8,531.6 -116.2,401.9 					"/>
					<polygon class="st73" points="88.6,308.5 101.2,420.8 226,332.6 					"/>
					<polygon class="st90" points="-36.3,332.6 88.6,308.5 55.4,196.3 					"/>
					<polygon class="st91" points="101.2,95.5 202.6,95.5 187.1,231.8 					"/>
					<polygon class="st92" points="667.4,332.6 722.4,277 730.9,404.5 					"/>
					<polygon class="st93" points="436.3,441.4 426.8,556.6 290.2,515.3 					"/>
					<polygon class="st94" points="607.2,231.8 730.9,185.4 722.4,277 					"/>
					<polygon class="st95" points="730.9,404.5 877.9,427.7 779.1,521.3 					"/>
					<polygon class="st96" points="226,332.6 290.2,427.7 344,292.8 					"/>
					<polygon class="st97" points="108.9,665.7 202.6,665.7 187.1,752.4 					"/>
					<polygon class="st98" points="281,627 416.2,678.6 281,792 					"/>
					<polygon class="st99" points="426.8,556.6 416.2,678.6 281,627 					"/>
					<polygon class="st100" points="436.3,441.4 513.6,515.3 426.8,556.6 					"/>
					<polygon class="st101" points="413.9,221.5 545.4,165.6 545.4,288.5 					"/>
					<polygon class="st102" points="281,171.1 344,292.8 187.1,231.8 					"/>
					<polygon class="st103" points="545.4,165.6 607.2,231.8 545.4,288.5 					"/>
					<polygon class="st104" points="678,69.7 730.9,185.4 783.4,100.6 					"/>
					<polygon class="st105" points="852.1,171.1 722.4,277 884.7,282.2 					"/>
					<polygon class="st106" points="877.9,427.7 959.8,404.5 884.7,282.2 					"/>
					<polygon class="st107" points="671.7,441.4 779.1,521.3 621.8,556.6 					"/>
					<polygon class="st108" points="877.9,427.7 884.7,530.8 779.1,521.3 					"/>
					<polygon class="st109" points="671.7,441.4 667.4,332.6 560,450.9 					"/>
					<polygon class="st17" points="502.4,647.6 621.8,556.6 513.6,515.3 					"/>
					<polygon class="st19" points="779.1,521.3 779.1,657.1 621.8,556.6 					"/>
					<polygon class="st110" points="67.7,542.8 101.2,420.8 194,531.6 					"/>
					<polygon class="st111" points="431.1,332.6 436.3,441.4 290.2,515.3 					"/>
					<polygon class="st112" points="290.2,427.7 290.2,515.3 431.1,332.6 					"/>
					<polygon class="st113" points="722.4,277 730.9,404.5 884.7,282.2 					"/>
					<polygon class="st102" points="-36.3,332.6 101.2,420.8 88.6,308.5 					"/>
					<polygon class="st24" points="639,762.8 779.1,657.1 795.4,752.4 					"/>
					<polygon class="st114" points="4.9,752.4 -26.6,657.1 -136.8,728.4 					"/>
					<polygon class="st115" points="-460.3,769.6 -577.8,866.2 -412.6,866.2 -375.7,779.9 					"/>
					<polygon class="st116" points="-154,843.5 -258,735.3 -278.6,843.5 					"/>
					<polygon class="st117" points="-108.5,617.6 -243.4,635.6 -136.8,531.6 					"/>
					<polygon class="st118" points="416.2,72.8 537.6,-8.8 498.7,125.3 					"/>
					<polygon class="st119" points="678,69.7 783.4,-8.8 783.4,100.6 					"/>
					<polygon class="st120" points="891.6,100.6 852.1,171.1 974.1,209.5 					"/>
					<polygon class="st121" points="202.6,665.7 194,531.6 108.9,665.7 					"/>
					<polygon class="st122" points="-108.5,617.6 -17.4,505 -26.6,657.1 					"/>
					<polygon class="st123" points="-136.8,728.4 -243.4,635.6 -258,735.3 					"/>
					<polygon class="st124" points="-264,418.3 -264,521.3 -394.7,542.8 					"/>
					<polygon class="st125" points="-442.1,451.9 -504.5,503.7 -597.6,521.3 -577.8,451.9 					"/>
					<polygon class="st126" points="-467.6,665.7 -347.3,678.6 -460.3,769.6 					"/>
					<polygon class="st127" points="-375.7,779.9 -258,735.3 -278.6,843.5 					"/>
					<polygon class="st128" points="-26.6,657.1 108.9,665.7 4.9,752.4 					"/>
					<polygon class="st129" points="187.1,752.4 281,792 202.6,866.2 					"/>
					<polygon class="st130" points="537.6,735.3 635.6,672.5 502.4,647.6 					"/>
					<polygon class="st131" points="795.4,752.4 845.2,647.6 938.6,691.4 877.9,792 					"/>
					<polygon class="st132" points="884.7,530.8 1006.2,515.3 959.8,404.5 					"/>
					<polygon class="st133" points="678,69.7 607.2,231.8 730.9,185.4 					"/>
					<polygon class="st134" points="416.2,72.8 323.4,-55.7 315.4,89.7 					"/>
					<polygon class="st135" points="67.7,542.8 -26.6,657.1 -17.4,505 					"/>
					<polygon class="st136" points="431.1,332.6 560,450.9 545.4,288.5 					"/>
					<polygon class="st137" points="845.2,647.6 884.7,530.8 938.6,691.4 					"/>
					<polygon class="st138" points="974.1,209.5 1006.2,58.2 891.6,100.6 					"/>
					<polygon class="st139" points="651,-28.3 678,69.7 537.6,-8.8 					"/>
					<polygon class="st140" points="498.7,125.3 678,69.7 545.4,165.6 					"/>
					<polygon class="st141" points="891.6,100.6 897,-76.1 969.7,-14.1 					"/>
					<polygon class="st142" points="884.7,282.2 877.9,427.7 730.9,404.5 					"/>
					<polygon class="st143" points="120.1,2.1 234.1,-42.3 202.6,95.5 101.2,95.5 					"/>
					<polygon class="st144" points="-136.8,531.6 -108.5,617.6 -17.4,505 					"/>
					<polygon class="st145" points="-264,521.3 -347.3,678.6 -394.7,542.8 					"/>
					<polygon class="st146" points="-504.5,503.7 -577.8,674.3 -467.6,665.7 					"/>
					<polygon class="st147" points="-347.3,404.1 -394.7,542.8 -264,418.3 					"/>
					<polygon class="st148" points="323.4,-55.7 234.1,-42.3 315.4,89.7 					"/>
					<polygon class="st149" points="416.2,72.8 419.4,-50.9 323.4,-55.7 					"/>
					<polygon class="st150" points="545.4,165.6 607.2,231.8 678,69.7 					"/>
					<polygon class="st151" points="730.9,185.4 722.4,277 852.1,171.1 					"/>
					<polygon class="st152" points="884.7,282.2 974.1,209.5 959.8,282.2 					"/>
					<polygon class="st153" points="-243.4,635.6 -264,521.3 -136.8,531.6 					"/>
					<polygon class="st154" points="-136.8,728.4 -154,843.5 4.9,752.4 					"/>
					<polygon class="st155" points="202.6,665.7 281,627 281,792 					"/>
					<path class="st156" d="M-604.2,60"/>
					<polygon class="st157" points="639,762.8 537.6,735.3 635.6,672.5 779.1,657.1 					"/>
					<polygon class="st158" points="877.9,792 983.8,796 938.6,691.4 					"/>
					<polygon class="st159" points="853.2,853.3 877.9,792 795.4,752.4 727.2,836.1 					"/>
					<polygon class="st160" points="639,762.8 658.3,836.1 727.2,836.1 795.4,752.4 					"/>
					<polygon class="st161" points="537.6,735.3 518.3,866.2 537.6,866.2 639,762.8 					"/>
					<polygon class="st162" points="358.6,866.2 497.6,866.2 436.3,742.1 					"/>
					<polygon class="st163" points="436.3,742.1 537.6,735.3 518.3,866.2 497.6,866.2 					"/>
					<polygon class="st164" points="202.6,866.2 358.6,866.2 281,792 					"/>
					<polygon class="st165" points="436.3,742.1 358.6,866.2 281,792 					"/>
					<polygon class="st166" points="-154,843.5 -81.7,866.2 4.9,866.2 4.9,752.4 					"/>
					<polygon class="st167" points="202.6,866.2 113.8,741.6 79,866.2 					"/>
					<polygon class="st168" points="202.6,665.7 187.1,752.4 281,792 					"/>
					<polygon class="st169" points="108.9,665.7 113.8,741.6 4.9,752.4 					"/>
					<polygon class="st170" points="194,531.6 202.6,665.7 281,627 					"/>
					<polygon class="st171" points="-243.4,635.6 -258,735.3 -347.3,678.6 					"/>
					<polygon class="st172" points="-81.7,866.2 -154,843.5 -278.6,843.5 -180.1,866.2 					"/>
					<polygon class="st173" points="-375.7,779.9 -412.6,866.2 -291.5,866.2 -278.6,843.5 					"/>
					<polygon class="st174" points="-347.3,678.6 -375.7,779.9 -258,735.3 					"/>
					<polygon class="st116" points="-291.5,866.2 -180.1,866.2 -278.6,843.5 					"/>
					<polygon class="st175" points="-347.3,678.6 -375.7,779.9 -460.3,769.6 					"/>
					<polygon class="st176" points="-394.7,542.8 -467.6,665.7 -347.3,678.6 					"/>
					<polygon class="st177" points="-577.8,866.2 -635.1,866.2 -635.1,786 -597.6,749 -460.3,769.6 					"/>
					<polygon class="st178" points="-635.1,533.3 -635.1,661.4 -577.8,674.3 -504.5,503.7 -597.6,521.3 					"/>
					<polygon class="st179" points="-635.1,786 -597.6,749 -635.1,741.6 					"/>
					<polygon class="st180" points="-577.8,674.3 -635.1,700 -635.1,741.6 -597.6,749 					"/>
					<polygon class="st181" points="-635.1,661.4 -635.1,700 -577.8,674.3 					"/>
					<polygon class="st182" points="877.9,792 853.2,853.3 983.8,796 					"/>
					<polygon class="st183" points="938.6,691.4 1040.2,747.3 1040.2,776.7 983.8,796 					"/>
					<polygon class="st184" points="853.2,853.3 853.2,866.2 1040.2,866.2 983.8,796 					"/>
					<polygon class="st185" points="727.2,836.1 717.2,866.2 853.2,866.2 853.2,853.3 					"/>
					<polygon class="st186" points="639,762.8 658.3,836.1 578.7,866.2 537.6,866.2 					"/>
					<polygon class="st187" points="717.2,866.2 727.2,836.1 658.3,836.1 578.7,866.2 					"/>
					<polygon class="st159" points="938.6,691.4 1040.2,634.3 1040.2,747.3 					"/>
					<polygon class="st188" points="983.8,796 1040.2,776.7 1040.2,866.2 					"/>
					<polygon class="st189" points="779.1,521.3 845.2,647.6 884.7,530.8 					"/>
					<polygon class="st190" points="884.7,530.8 938.6,691.4 1006.2,515.3 					"/>
					<polygon class="st191" points="1006.2,515.3 1040.2,467.6 1040.2,346 959.8,404.5 					"/>
					<polygon class="st192" points="938.6,691.4 1040.2,634.3 1040.2,563.2 1006.2,515.3 					"/>
					<polygon class="st193" points="1040.2,467.6 1040.2,521.3 1006.2,515.3 					"/>
					<polygon class="st194" points="1040.2,563.2 1040.2,521.3 1006.2,515.3 					"/>
					<polygon class="st195" points="884.7,282.2 959.8,404.5 959.8,282.2 					"/>
					<polygon class="st196" points="1040.2,346 959.8,404.5 959.8,282.2 1040.2,328 					"/>
					<polygon class="st99" points="621.8,556.6 560,450.9 671.7,441.4 					"/>
					<polygon class="st197" points="1040.2,328 1040.2,193.4 974.1,209.5 959.8,282.2 					"/>
					<polygon class="st198" points="1006.2,58.2 1040.2,75.8 1040.2,193.4 974.1,209.5 					"/>
					<polygon class="st199" points="969.7,-14.1 1006.2,58.2 891.6,100.6 					"/>
					<polygon class="st200" points="1029,-76.1 969.7,-14.1 1040.2,-31.7 1040.2,-76.1 					"/>
					<polygon class="st201" points="1006.2,58.2 1040.2,-31.7 1040.2,75.8 					"/>
					<polygon class="st202" points="969.7,-14.1 1040.2,-31.7 1006.2,58.2 					"/>
					<polygon class="st175" points="783.4,-8.8 891.6,100.6 783.4,100.6 					"/>
					<polygon class="st203" points="852.1,171.1 891.6,100.6 783.4,100.6 					"/>
					<polygon class="st204" points="783.4,-8.8 897,-76.1 891.6,100.6 					"/>
					<polygon class="st205" points="651,-28.3 783.4,-8.8 678,69.7 					"/>
					<polygon class="st206" points="419.4,-50.9 537.6,-8.8 416.2,72.8 					"/>
					<polygon class="st207" points="769.1,-76.1 783.4,-8.8 897,-76.1 					"/>
					<polygon class="st208" points="651,-28.3 669.1,-76.1 769.1,-76.1 783.4,-8.8 					"/>
					<polygon class="st209" points="537.6,-8.8 523.8,-76.1 576.3,-76.1 651,-28.3 					"/>
					<polygon class="st210" points="669.1,-76.1 651,-28.3 576.3,-76.1 					"/>
					<polygon class="st211" points="419.4,-50.9 472.8,-76.1 523.8,-76.1 537.6,-8.8 					"/>
					<polygon class="st212" points="323.4,-76.1 323.4,-55.7 419.4,-50.9 427.2,-76.1 					"/>
					<polygon class="st213" points="472.8,-76.1 427.2,-76.1 419.4,-50.9 					"/>
					<polygon class="st214" points="234.1,-42.3 284,-76.1 323.4,-76.1 323.4,-55.7 					"/>
					<polygon class="st215" points="120.1,2.1 180.4,-76.1 284,-76.1 234.1,-42.3 					"/>
					<polygon class="st216" points="-116.2,401.9 -36.3,332.6 -26.6,441.4 					"/>
					<polygon class="st217" points="-544.9,292.8 -504.5,326.3 -577.8,451.9 					"/>
					<polygon class="st218" points="-635.1,438.6 -635.1,533.3 -597.6,521.3 -577.8,451.9 					"/>
					<polygon class="st219" points="-635.1,314.5 -635.1,438.6 -577.8,451.9 -544.9,292.8 					"/>
					<polygon class="st220" points="-635.1,231.8 -635.1,314.5 -544.9,292.8 					"/>
					<polygon class="st221" points="-635.1,203.9 -635.1,231.8 -544.9,292.8 -564.7,185.4 					"/>
					<polygon class="st222" points="-635.1,133.4 -635.1,203.9 -564.7,185.4 					"/>
					<polygon class="st223" points="-635.1,72.8 -604.2,60 -564.7,185.4 -635.1,133.4 					"/>
					<polygon class="st224" points="-498.5,72.8 -564.7,185.4 -604.2,60 					"/>
					<polygon class="st225" points="-635.1,-76.1 -635.1,-48.5 -589.6,-44 -599.9,-76.1 					"/>
					<polygon class="st226" points="-551.4,-76.1 -589.6,-44 -599.9,-76.1 					"/>
					<polygon class="st227" points="-480.6,-76.1 -504.5,-16.5 -589.6,-44 -551.4,-76.1 					"/>
					<polygon class="st35" points="-298.3,-76.1 -347.3,12.7 -343.2,-76.1 					"/>
					<polygon class="st228" points="-480.6,-76.1 -504.5,-16.5 -347.3,12.7 -343.2,-76.1 					"/>
					<polygon class="st229" points="-238.9,-76.1 -231.3,-33.7 -347.3,12.7 -298.3,-76.1 					"/>
					<polygon class="st230" points="-173.8,-76.1 -231.3,-33.7 -238.9,-76.1 					"/>
					<polygon class="st231" points="-150.3,-42 -134.5,-76.1 -173.8,-76.1 -231.3,-33.7 					"/>
					<polygon class="st232" points="-23.2,-76.1 -55.2,-0.8 -150.3,-42 -55.2,-76.1 					"/>
					<polygon class="st232" points="-134.5,-76.1 -150.3,-42 -55.2,-76.1 					"/>
					<polygon class="st233" points="120.1,2.1 67.8,-76.1 -23.2,-76.1 -55.2,-0.8 					"/>
					<polygon class="st234" points="136.9,-76.1 120.1,2.1 180.4,-76.1 					"/>
					<polygon class="st235" points="67.8,-76.1 136.9,-76.1 120.1,2.1 					"/>
					<polygon class="st236" points="234.1,427.7 194,531.6 290.2,515.3 					"/>
					<polygon class="st237" points="101.2,420.8 67.7,542.8 -17.4,505 					"/>
					<polygon class="st238" points="416.2,678.6 436.3,742.1 502.4,647.6 					"/>
					<polygon class="st8" points="113.8,741.6 79,866.2 67.7,866.2 4.9,752.4 					"/>
					<polygon class="st239" points="4.9,866.2 67.7,866.2 4.9,752.4 					"/>
					<polygon class="st240" points="-264,521.3 -243.4,635.6 -347.3,678.6 					"/>
				</g>
			</g>
			<g>
				<defs>
					<path id="SVGID_6_" d="M278.4,72.6C130.1,72.6,10,192.8,10,341c0,62.4,21.3,119.8,57,165.3c3.5-30.6,22.8-110,126.4-128.7
						c1.8,26.9,39.2,48.5,85,48.5s83.2-21.5,85-48.5c103.6,18.7,122.8,98,126.4,128.7c35.7-45.6,57-103,57-165.3
						C546.7,192.8,426.6,72.6,278.4,72.6z M278.4,391.5c-57.7,0-106.8-67.8-106.8-167.4s106.8-101,106.8-101s106.8,1.4,106.8,101
						S336,391.5,278.4,391.5z"/>
				</defs>
				<clipPath id="SVGID_7_">
					<use xlink:href="#SVGID_6_"  style="overflow:visible;"/>
				</clipPath>
			</g>
		</g>
	</g>
</g>
<g id="Layer_3" class="st241">
	<g class="st242">
		<path class="st243" d="M278.4,72.6C130.1,72.6,10,192.8,10,341c0,62.4,21.3,119.8,57,165.3c3.5-30.6,22.8-110,126.4-128.7
			c1.8,26.9,39.2,48.5,85,48.5s83.2-21.5,85-48.5c103.6,18.7,122.8,98,126.4,128.7c35.7-45.6,57-103,57-165.3
			C546.7,192.8,426.6,72.6,278.4,72.6z M278.4,391.5c-57.7,0-106.8-67.8-106.8-167.4s106.8-101,106.8-101s106.8,1.4,106.8,101
			S336,391.5,278.4,391.5z"/>
	</g>
</g>
<g id="Layer_1" class="st241">
	<g class="st244">
		<linearGradient id="SVGID_8_" gradientUnits="userSpaceOnUse" x1="10" y1="289.4826" x2="546.7193" y2="289.4826">
			<stop  offset="0" style="stop-color:#FFF43D"/>
			<stop  offset="1" style="stop-color:#E98800"/>
		</linearGradient>
		<path class="st245" d="M278.4,72.6C130.1,72.6,10,192.8,10,341c0,62.4,21.3,119.8,57,165.3c3.5-30.6,22.8-110,126.4-128.7
			c1.8,26.9,39.2,48.5,85,48.5s83.2-21.5,85-48.5c103.6,18.7,122.8,98,126.4,128.7c35.7-45.6,57-103,57-165.3
			C546.7,192.8,426.6,72.6,278.4,72.6z M278.4,391.5c-57.7,0-106.8-67.8-106.8-167.4s106.8-101,106.8-101s106.8,1.4,106.8,101
			S336,391.5,278.4,391.5z"/>
	</g>
	<g class="st246">
		<linearGradient id="SVGID_9_" gradientUnits="userSpaceOnUse" x1="149.7262" y1="289.4826" x2="686.4456" y2="289.4826">
			<stop  offset="1.035466e-02" style="stop-color:#FFFFFF"/>
			<stop  offset="0.112" style="stop-color:#FFF9ED"/>
			<stop  offset="0.459" style="stop-color:#FFE6B2"/>
			<stop  offset="0.7034" style="stop-color:#FFDA7B"/>
			<stop  offset="0.8977" style="stop-color:#FFD155"/>
			<stop  offset="1" style="stop-color:#FFCE47"/>
		</linearGradient>
		<path class="st247" d="M278.4,72.6C130.1,72.6,10,192.8,10,341c0,62.4,21.3,119.8,57,165.3c3.5-30.6,22.8-110,126.4-128.7
			c1.8,26.9,39.2,48.5,85,48.5s83.2-21.5,85-48.5c103.6,18.7,122.8,98,126.4,128.7c35.7-45.6,57-103,57-165.3
			C546.7,192.8,426.6,72.6,278.4,72.6z M278.4,391.5c-57.7,0-106.8-67.8-106.8-167.4s106.8-101,106.8-101s106.8,1.4,106.8,101
			S336,391.5,278.4,391.5z"/>
	</g>
</g>
<g id="Layer_1_copy">
	<g class="st248">
		<linearGradient id="SVGID_10_" gradientUnits="userSpaceOnUse" x1="10" y1="289.4826" x2="546.7193" y2="289.4826">
			<stop  offset="0" style="stop-color:#FFF43D"/>
			<stop  offset="1" style="stop-color:#E98800"/>
		</linearGradient>
		<path class="st249" d="M278.4,72.6C130.1,72.6,10,192.8,10,341c0,62.4,21.3,119.8,57,165.3c3.5-30.6,22.8-110,126.4-128.7
			c1.8,26.9,39.2,48.5,85,48.5s83.2-21.5,85-48.5c103.6,18.7,122.8,98,126.4,128.7c35.7-45.6,57-103,57-165.3
			C546.7,192.8,426.6,72.6,278.4,72.6z M278.4,391.5c-57.7,0-106.8-67.8-106.8-167.4s106.8-101,106.8-101s106.8,1.4,106.8,101
			S336,391.5,278.4,391.5z"/>
	</g>
	<g class="st250">
		<defs>
			<path id="SVGID_11_" class="st250" d="M278.4,72.6C130.1,72.6,10,192.8,10,341c0,62.4,21.3,119.8,57,165.3
				c3.5-30.6,22.8-110,126.4-128.7c1.8,26.9,39.2,48.5,85,48.5s83.2-21.5,85-48.5c103.6,18.7,122.8,98,126.4,128.7
				c35.7-45.6,57-103,57-165.3C546.7,192.8,426.6,72.6,278.4,72.6z M278.4,391.5c-57.7,0-106.8-67.8-106.8-167.4
				s106.8-101,106.8-101s106.8,1.4,106.8,101S336,391.5,278.4,391.5z"/>
		</defs>
		<clipPath id="SVGID_12_">
			<use xlink:href="#SVGID_11_"  style="overflow:visible;"/>
		</clipPath>
		<radialGradient id="SVGID_13_" cx="160.2645" cy="235.1548" r="396.4548" gradientUnits="userSpaceOnUse">
			<stop  offset="0.155" style="stop-color:#FFFFFF;stop-opacity:0.9688"/>
			<stop  offset="0.5177" style="stop-color:#FFFFFF;stop-opacity:0"/>
		</radialGradient>
		<circle class="st251" cx="160.3" cy="235.2" r="396.5"/>
	</g>
</g>
<g id="logo" class="st241">
	<path class="st252" d="M379.5,103.8L379.5,103.8L379.5,103.8z"/>
	<g class="st242">
		<g>
			<path class="st243" d="M462.7,330L462.7,330L462.7,330z"/>
			<polygon class="st243" points="457.8,326.2 403.1,283.3 430.4,335.4 			"/>
			<polygon class="st243" points="435.3,344.7 462.7,396.7 462.7,335.5 			"/>
		</g>
		<g>
			<path class="st243" d="M393.1,353.4L393.1,353.4L393.1,353.4z"/>
			<polygon class="st243" points="420.5,338.7 393.1,286.6 393.1,347.9 			"/>
			<polygon class="st243" points="398,357.2 452.7,400.1 425.4,348 			"/>
		</g>
	</g>
	<path class="st253" d="M462.9,158.3L462.9,158.3L462.9,158.3z"/>
	<g class="st254">
		<g>
			<polygon class="st243" points="472.8,400.1 527.5,357.2 500.1,348 			"/>
			<polygon class="st243" points="490.2,344.7 462.8,335.5 462.8,396.7 			"/>
		</g>
		<g>
			<polygon class="st243" points="522.4,283.3 467.7,326.2 495.1,335.4 			"/>
			<polygon class="st243" points="505,338.7 532.4,347.9 532.4,286.6 			"/>
		</g>
	</g>
	<path class="st255" d="M462.9,49.3L462.9,49.3L462.9,49.3z"/>
	<g class="st242">
		<g class="st256">
			<path class="st243" d="M532.4,275.5L532.4,275.5L532.4,275.5z"/>
			<polygon class="st243" points="468,280.7 468,326 525.8,280.7 			"/>
			<polygon class="st243" points="525.8,270.3 468,225.1 468,270.3 			"/>
		</g>
		<g class="st256">
			<polygon class="st243" points="457.6,270.3 457.6,225.1 399.9,270.3 			"/>
			<polygon class="st243" points="399.9,280.7 457.6,326 457.6,280.7 			"/>
			<path class="st243" d="M393.3,275.5L393.3,275.5L393.3,275.5z"/>
		</g>
	</g>
</g>
</svg>
