<?xml version="1.0" encoding="utf-8"?>
<!-- Generator: Adobe Illustrator 24.1.0, SVG Export Plug-In . SVG Version: 6.00 Build 0)  -->
<svg version="1.1" id="Layer_1" xmlns="http://www.w3.org/2000/svg" xmlns:xlink="http://www.w3.org/1999/xlink" x="0px" y="0px"
	 viewBox="0 0 1000 1000" style="enable-background:new 0 0 1000 1000;" xml:space="preserve">
<style type="text/css">
	.st0{fill:#77CDD3;}
	.st1{fill:#00A3B9;}
	.st2{fill:#2C3F99;}
	.st3{fill:#FAA31B;}
	.st4{fill:#FFFFFF;}
	.st5{fill:#F36C48;}
	.st6{fill:#EDEDED;}
	.st7{fill:#A21D2E;}
	.st8{fill:#DDDDDD;}
</style>
<polygon class="st0" points="-969.5,2079.6 -1305.5,1816.2 -1305.5,1439.9 -969.5,1703.3 "/>
<polygon class="st1" points="-902.7,2079.6 -566.7,1816.2 -566.7,1439.9 -902.7,1703.3 "/>
<polygon class="st2" points="-1272.1,1383.8 -936.1,1647.2 -600,1383.8 -936.1,1120.4 "/>
<polygon class="st3" points="130.6,336.4 130.6,336.4 130.6,336.4 "/>
<g>
	<g>
		<polygon class="st4" points="532.8,599.8 532.8,599.8 532.8,599.8 		"/>
		<polygon class="st4" points="509.2,581.4 244.7,374.1 377,625.8 		"/>
		<polygon class="st4" points="400.5,670.6 532.8,922.3 532.8,626.2 		"/>
	</g>
	<g>
		<polygon class="st4" points="196.7,712.7 196.7,712.7 196.7,712.7 		"/>
		<polygon class="st4" points="329,641.9 196.7,390.2 196.7,686.3 		"/>
		<polygon class="st4" points="220.3,731.2 484.7,938.4 352.5,686.7 		"/>
	</g>
</g>
<polygon class="st5" points="533.4,599.8 533.4,599.8 533.4,599.8 "/>
<g>
	<g>
		<polygon class="st6" points="581.4,938.4 845.9,731.2 713.6,686.7 		"/>
		<polygon class="st6" points="665.6,670.6 533.4,626.2 533.4,922.3 		"/>
	</g>
	<g>
		<polygon class="st6" points="821.4,374.1 556.9,581.4 689.2,625.8 		"/>
		<polygon class="st6" points="737.2,641.9 869.4,686.3 869.4,390.2 		"/>
	</g>
</g>
<polygon class="st7" points="533.4,73.1 533.4,73.1 533.4,73.1 "/>
<g>
	<polygon class="st8" points="869.4,336.4 869.4,336.4 869.4,336.4 	"/>
	<polygon class="st8" points="558.4,361.4 558.4,580.2 837.5,361.4 	"/>
	<polygon class="st8" points="837.5,311.4 558.4,92.7 558.4,311.4 	"/>
</g>
<g>
	<polygon class="st8" points="508.4,311.4 508.4,92.7 229.2,311.4 	"/>
	<polygon class="st8" points="229.2,361.4 508.4,580.2 508.4,361.4 	"/>
	<polygon class="st8" points="197.3,336.4 197.3,336.4 197.3,336.4 	"/>
</g>
<polygon class="st3" points="-1305.5,336.4 -1305.5,336.4 -1305.5,336.4 "/>
<g>
	<g>
		<polygon class="st0" points="-903.3,599.8 -903.3,599.8 -903.3,599.8 		"/>
		<polygon class="st0" points="-926.9,581.4 -1191.4,374.1 -1059.1,625.8 		"/>
		<polygon class="st0" points="-1035.6,670.6 -903.3,922.3 -903.3,626.2 		"/>
	</g>
	<g>
		<polygon class="st0" points="-1239.4,712.7 -1239.4,712.7 -1239.4,712.7 		"/>
		<polygon class="st0" points="-1107.1,641.9 -1239.4,390.2 -1239.4,686.3 		"/>
		<polygon class="st0" points="-1215.8,731.2 -951.3,938.4 -1083.6,686.7 		"/>
	</g>
</g>
<polygon class="st5" points="-902.7,599.8 -902.7,599.8 -902.7,599.8 "/>
<g>
	<g>
		<polygon class="st1" points="-854.7,938.4 -590.2,731.2 -722.5,686.7 		"/>
		<polygon class="st1" points="-770.5,670.6 -902.7,626.2 -902.7,922.3 		"/>
	</g>
	<g>
		<polygon class="st1" points="-614.7,374.1 -879.2,581.4 -746.9,625.8 		"/>
		<polygon class="st1" points="-698.9,641.9 -566.7,686.3 -566.7,390.2 		"/>
	</g>
</g>
<polygon class="st7" points="-902.7,73.1 -902.7,73.1 -902.7,73.1 "/>
<g>
	<polygon class="st2" points="-566.7,336.4 -566.7,336.4 -566.7,336.4 	"/>
	<polygon class="st2" points="-877.7,361.4 -877.7,580.2 -598.6,361.4 	"/>
	<polygon class="st2" points="-598.6,311.4 -877.7,92.7 -877.7,311.4 	"/>
</g>
<g>
	<polygon class="st2" points="-927.7,311.4 -927.7,92.7 -1206.9,311.4 	"/>
	<polygon class="st2" points="-1206.9,361.4 -927.7,580.2 -927.7,361.4 	"/>
	<polygon class="st2" points="-1238.8,336.4 -1238.8,336.4 -1238.8,336.4 	"/>
</g>
</svg>
